<?xml version="1.0" encoding="UTF-8" standalone="no"?>
<!DOCTYPE svg PUBLIC "-//W3C//DTD SVG 1.1//EN"
 "http://www.w3.org/Graphics/SVG/1.1/DTD/svg11.dtd">
<!-- Generated by graphviz version 15.0.0 (0)
 -->
<!-- Title: CamofoxHTTP Pages: 1 -->
<svg width="442pt" height="130pt"
 viewBox="7.00 7.00 435.00 123.00" xmlns="http://www.w3.org/2000/svg" xmlns:xlink="http://www.w3.org/1999/xlink">
<g id="graph0" class="graph" transform="scale(1 1) rotate(0) translate(11.2 119.2)">
<title>CamofoxHTTP</title>
<polygon fill="white" stroke="none" points="-4,4 -4,-112 423.5,-112 423.5,4 -4,4"/>
<!-- hermes -->
<g id="node1" class="node">
<title>hermes</title>
<path fill="#dee5f2" stroke="#3465a4" d="M77.5,-72C77.5,-72 12,-72 12,-72 6,-72 0,-66 0,-60 0,-60 0,-48 0,-48 0,-42 6,-36 12,-36 12,-36 77.5,-36 77.5,-36 83.5,-36 89.5,-42 89.5,-48 89.5,-48 89.5,-60 89.5,-60 89.5,-66 83.5,-72 77.5,-72"/>
<text xml:space="preserve" text-anchor="middle" x="44.75" y="-49.92" font-family="sans-serif" font-size="11.00">Hermes Agent</text>
</g>
<!-- camofox -->
<g id="node2" class="node">
<title>camofox</title>
<path fill="#ede5ff" stroke="#8b5cf6" d="M217,-72C217,-72 171,-72 171,-72 165,-72 159,-66 159,-60 159,-60 159,-48 159,-48 159,-42 165,-36 171,-36 171,-36 217,-36 217,-36 223,-36 229,-42 229,-48 229,-48 229,-60 229,-60 229,-66 223,-72 217,-72"/>
<text xml:space="preserve" text-anchor="middle" x="194" y="-56.3" font-family="sans-serif" font-size="11.00">Camofox</text>
<text xml:space="preserve" text-anchor="middle" x="194" y="-43.55" font-family="sans-serif" font-size="11.00">(port 9377)</text>
</g>
<!-- hermes&#45;&gt;camofox -->
<g id="edge1" class="edge">
<title>hermes&#45;&gt;camofox</title>
<path fill="none" stroke="black" d="M89.93,-54C89.93,-54 147.41,-54 147.41,-54"/>
<polygon fill="black" stroke="black" points="147.41,-57.5 157.41,-54 147.41,-50.5 147.41,-57.5"/>
<text xml:space="preserve" text-anchor="middle" x="124.25" y="-56.7" font-family="Times,serif" font-size="9.00">HTTP</text>
</g>
<!-- camoufox -->
<g id="node3" class="node">
<title>camoufox</title>
<path fill="#e5ffe5" stroke="#22c55e" d="M405.62,-108C405.62,-108 337.12,-108 337.12,-108 331.12,-108 325.12,-102 325.12,-96 325.12,-96 325.12,-84 325.12,-84 325.12,-78 331.12,-72 337.12,-72 337.12,-72 405.62,-72 405.62,-72 411.62,-72 417.62,-78 417.62,-84 417.62,-84 417.62,-96 417.62,-96 417.62,-102 411.62,-108 405.62,-108"/>
<text xml:space="preserve" text-anchor="middle" x="371.38" y="-92.3" font-family="sans-serif" font-size="11.00">Camoufox</text>
<text xml:space="preserve" text-anchor="middle" x="371.38" y="-79.55" font-family="sans-serif" font-size="11.00">(Firefox&#45;based)</text>
</g>
<!-- camofox&#45;&gt;camoufox -->
<g id="edge2" class="edge">
<title>camofox&#45;&gt;camoufox</title>
<path fill="none" stroke="black" d="M193.5,-72.42C193.5,-81.28 193.5,-90 193.5,-90 193.5,-90 313.13,-90 313.13,-90"/>
<polygon fill="black" stroke="black" points="313.13,-93.5 323.13,-90 313.13,-86.5 313.13,-93.5"/>
<text xml:space="preserve" text-anchor="middle" x="276.12" y="-92.7" font-family="Times,serif" font-size="9.00">Playwright</text>
</g>
<!-- xvfb -->
<g id="node4" class="node">
<title>xvfb</title>
<path fill="#fff5e5" stroke="#f59e0b" d="M407.5,-36C407.5,-36 335.25,-36 335.25,-36 329.25,-36 323.25,-30 323.25,-24 323.25,-24 323.25,-12 323.25,-12 323.25,-6 329.25,0 335.25,0 335.25,0 407.5,0 407.5,0 413.5,0 419.5,-6 419.5,-12 419.5,-12 419.5,-24 419.5,-24 419.5,-30 413.5,-36 407.5,-36"/>
<text xml:space="preserve" text-anchor="middle" x="371.38" y="-20.3" font-family="sans-serif" font-size="11.00">Xvfb</text>
<text xml:space="preserve" text-anchor="middle" x="371.38" y="-7.55" font-family="sans-serif" font-size="11.00">(virtual display)</text>
</g>
<!-- camofox&#45;&gt;xvfb -->
<g id="edge3" class="edge">
<title>camofox&#45;&gt;xvfb</title>
<path fill="none" stroke="black" stroke-dasharray="5,2" d="M193.5,-35.58C193.5,-26.72 193.5,-18 193.5,-18 193.5,-18 311.26,-18 311.26,-18"/>
<polygon fill="black" stroke="black" points="311.26,-21.5 321.26,-18 311.26,-14.5 311.26,-21.5"/>
<text xml:space="preserve" text-anchor="middle" x="276.12" y="-20.7" font-family="Times,serif" font-size="9.00">renders to</text>
</g>
</g>
</svg>
