<?xml version="1.0" encoding="UTF-8" standalone="no"?>
<!DOCTYPE svg PUBLIC "-//W3C//DTD SVG 1.1//EN"
 "http://www.w3.org/Graphics/SVG/1.1/DTD/svg11.dtd">
<!-- Generated by graphviz version 2.40.1 (20161225.0304)
 -->
<!-- Title: CamofoxCreds Pages: 1 -->
<svg width="428pt" height="318pt"
 viewBox="7.20 7.20 420.41 311.20" xmlns="http://www.w3.org/2000/svg" xmlns:xlink="http://www.w3.org/1999/xlink">
<g id="graph0" class="graph" transform="scale(1 1) rotate(0) translate(11.2 307.2)">
<title>CamofoxCreds</title>
<polygon fill="#ffffff" stroke="transparent" points="-4,4 -4,-300 409.2055,-300 409.2055,4 -4,4"/>
<!-- start -->
<g id="node1" class="node">
<title>start</title>
<path fill="#e5ffe5" stroke="#22c55e" d="M211.777,-296C211.777,-296 173.106,-296 173.106,-296 168.2727,-296 163.4394,-291.1667 163.4394,-286.3333 163.4394,-286.3333 163.4394,-276.6667 163.4394,-276.6667 163.4394,-271.8333 168.2727,-267 173.106,-267 173.106,-267 211.777,-267 211.777,-267 216.6103,-267 221.4436,-271.8333 221.4436,-276.6667 221.4436,-276.6667 221.4436,-286.3333 221.4436,-286.3333 221.4436,-291.1667 216.6103,-296 211.777,-296"/>
<text text-anchor="middle" x="192.4415" y="-278.5" font-family="sans-serif" font-size="10.00" fill="#000000">登录流程</text>
</g>
<!-- keepass -->
<g id="node2" class="node">
<title>keepass</title>
<path fill="#dee5f2" stroke="#3465a4" d="M109.46,-245C109.46,-245 15.423,-245 15.423,-245 10.5897,-245 5.7563,-240.1667 5.7563,-235.3333 5.7563,-235.3333 5.7563,-225.6667 5.7563,-225.6667 5.7563,-220.8333 10.5897,-216 15.423,-216 15.423,-216 109.46,-216 109.46,-216 114.2933,-216 119.1267,-220.8333 119.1267,-225.6667 119.1267,-225.6667 119.1267,-235.3333 119.1267,-235.3333 119.1267,-240.1667 114.2933,-245 109.46,-245"/>
<text text-anchor="middle" x="62.4415" y="-227.5" font-family="sans-serif" font-size="10.00" fill="#000000">KeePassXC (Web 凭据)</text>
</g>
<!-- start&#45;&gt;keepass -->
<g id="edge1" class="edge">
<title>start&#45;&gt;keepass</title>
<path fill="none" stroke="#000000" d="M163.267,-281C124.9386,-281 62.4415,-281 62.4415,-281 62.4415,-281 62.4415,-255.1067 62.4415,-255.1067"/>
<polygon fill="#000000" stroke="#000000" points="65.9416,-255.1067 62.4415,-245.1067 58.9416,-255.1067 65.9416,-255.1067"/>
</g>
<!-- api -->
<g id="node5" class="node">
<title>api</title>
<path fill="#ede5ff" stroke="#8b5cf6" d="M232.0441,-245C232.0441,-245 152.8389,-245 152.8389,-245 148.0056,-245 143.1722,-240.1667 143.1722,-235.3333 143.1722,-235.3333 143.1722,-225.6667 143.1722,-225.6667 143.1722,-220.8333 148.0056,-216 152.8389,-216 152.8389,-216 232.0441,-216 232.0441,-216 236.8774,-216 241.7108,-220.8333 241.7108,-225.6667 241.7108,-225.6667 241.7108,-235.3333 241.7108,-235.3333 241.7108,-240.1667 236.8774,-245 232.0441,-245"/>
<text text-anchor="middle" x="192.4415" y="-227.5" font-family="sans-serif" font-size="10.00" fill="#000000">Camofox REST API</text>
</g>
<!-- start&#45;&gt;api -->
<g id="edge2" class="edge">
<title>start&#45;&gt;api</title>
<path fill="none" stroke="#000000" d="M192.4415,-266.7487C192.4415,-266.7487 192.4415,-255.042 192.4415,-255.042"/>
<polygon fill="#000000" stroke="#000000" points="195.9416,-255.042 192.4415,-245.042 188.9416,-255.0421 195.9416,-255.042"/>
</g>
<!-- followup -->
<g id="node10" class="node">
<title>followup</title>
<path fill="#e5ffe5" stroke="#22c55e" d="M377.962,-245C377.962,-245 278.921,-245 278.921,-245 274.0877,-245 269.2544,-240.1667 269.2544,-235.3333 269.2544,-235.3333 269.2544,-225.6667 269.2544,-225.6667 269.2544,-220.8333 274.0877,-216 278.921,-216 278.921,-216 377.962,-216 377.962,-216 382.7953,-216 387.6286,-220.8333 387.6286,-225.6667 387.6286,-225.6667 387.6286,-235.3333 387.6286,-235.3333 387.6286,-240.1667 382.7953,-245 377.962,-245"/>
<text text-anchor="middle" x="328.4415" y="-227.5" font-family="sans-serif" font-size="10.00" fill="#000000">后续访问 (同一 userId)</text>
</g>
<!-- start&#45;&gt;followup -->
<g id="edge3" class="edge">
<title>start&#45;&gt;followup</title>
<path fill="none" stroke="#000000" d="M221.6169,-281C261.5782,-281 328.4415,-281 328.4415,-281 328.4415,-281 328.4415,-255.1067 328.4415,-255.1067"/>
<polygon fill="#000000" stroke="#000000" points="331.9416,-255.1067 328.4415,-245.1067 324.9416,-255.1067 331.9416,-255.1067"/>
</g>
<!-- keepass_search -->
<g id="node3" class="node">
<title>keepass_search</title>
<path fill="#f0f4ff" stroke="#3465a4" d="M110.1579,-194C110.1579,-194 10.7251,-194 10.7251,-194 5.3918,-194 .0584,-188.6667 .0584,-183.3333 .0584,-183.3333 .0584,-172.6667 .0584,-172.6667 .0584,-167.3333 5.3918,-162 10.7251,-162 10.7251,-162 110.1579,-162 110.1579,-162 115.4912,-162 120.8246,-167.3333 120.8246,-172.6667 120.8246,-172.6667 120.8246,-183.3333 120.8246,-183.3333 120.8246,-188.6667 115.4912,-194 110.1579,-194"/>
<text text-anchor="middle" x="60.4415" y="-181" font-family="sans-serif" font-size="10.00" fill="#000000">keepassxc&#45;cli search</text>
<text text-anchor="middle" x="60.4415" y="-169" font-family="sans-serif" font-size="10.00" fill="#000000">Combined.kdbx &lt;站点名&gt;</text>
</g>
<!-- keepass&#45;&gt;keepass_search -->
<g id="edge4" class="edge">
<title>keepass&#45;&gt;keepass_search</title>
<path fill="none" stroke="#000000" d="M62.4415,-215.8758C62.4415,-215.8758 62.4415,-204.0191 62.4415,-204.0191"/>
<polygon fill="#000000" stroke="#000000" points="65.9416,-204.0191 62.4415,-194.0191 58.9416,-204.0192 65.9416,-204.0191"/>
</g>
<!-- keepass_get -->
<g id="node4" class="node">
<title>keepass_get</title>
<path fill="#dee5f2" stroke="#3465a4" d="M96.0804,-138.5C96.0804,-138.5 24.8026,-138.5 24.8026,-138.5 19.9693,-138.5 15.136,-133.6667 15.136,-128.8333 15.136,-128.8333 15.136,-119.1667 15.136,-119.1667 15.136,-114.3333 19.9693,-109.5 24.8026,-109.5 24.8026,-109.5 96.0804,-109.5 96.0804,-109.5 100.9137,-109.5 105.747,-114.3333 105.747,-119.1667 105.747,-119.1667 105.747,-128.8333 105.747,-128.8333 105.747,-133.6667 100.9137,-138.5 96.0804,-138.5"/>
<text text-anchor="middle" x="60.4415" y="-121" font-family="sans-serif" font-size="10.00" fill="#000000">获取用户名 + 密码</text>
</g>
<!-- keepass_search&#45;&gt;keepass_get -->
<g id="edge5" class="edge">
<title>keepass_search&#45;&gt;keepass_get</title>
<path fill="none" stroke="#000000" d="M60.4415,-161.7982C60.4415,-161.7982 60.4415,-148.7178 60.4415,-148.7178"/>
<polygon fill="#000000" stroke="#000000" points="63.9416,-148.7178 60.4415,-138.7178 56.9416,-148.7179 63.9416,-148.7178"/>
</g>
<!-- api_nav -->
<g id="node6" class="node">
<title>api_nav</title>
<path fill="#f5f0ff" stroke="#8b5cf6" d="M231.5883,-194C231.5883,-194 153.2947,-194 153.2947,-194 147.9613,-194 142.628,-188.6667 142.628,-183.3333 142.628,-183.3333 142.628,-172.6667 142.628,-172.6667 142.628,-167.3333 147.9613,-162 153.2947,-162 153.2947,-162 231.5883,-162 231.5883,-162 236.9217,-162 242.255,-167.3333 242.255,-172.6667 242.255,-172.6667 242.255,-183.3333 242.255,-183.3333 242.255,-188.6667 236.9217,-194 231.5883,-194"/>
<text text-anchor="middle" x="192.4415" y="-181" font-family="sans-serif" font-size="10.00" fill="#000000">POST /tabs</text>
<text text-anchor="middle" x="192.4415" y="-169" font-family="sans-serif" font-size="10.00" fill="#000000">(导航到登录页)</text>
</g>
<!-- api&#45;&gt;api_nav -->
<g id="edge6" class="edge">
<title>api&#45;&gt;api_nav</title>
<path fill="none" stroke="#000000" d="M192.4415,-215.8758C192.4415,-215.8758 192.4415,-204.0191 192.4415,-204.0191"/>
<polygon fill="#000000" stroke="#000000" points="195.9416,-204.0191 192.4415,-194.0191 188.9416,-204.0192 195.9416,-204.0191"/>
</g>
<!-- api_fill -->
<g id="node7" class="node">
<title>api_fill</title>
<path fill="#f5f0ff" stroke="#8b5cf6" d="M217.2192,-140C217.2192,-140 167.6638,-140 167.6638,-140 162.3304,-140 156.9971,-134.6667 156.9971,-129.3333 156.9971,-129.3333 156.9971,-118.6667 156.9971,-118.6667 156.9971,-113.3333 162.3304,-108 167.6638,-108 167.6638,-108 217.2192,-108 217.2192,-108 222.5526,-108 227.8859,-113.3333 227.8859,-118.6667 227.8859,-118.6667 227.8859,-129.3333 227.8859,-129.3333 227.8859,-134.6667 222.5526,-140 217.2192,-140"/>
<text text-anchor="middle" x="192.4415" y="-127" font-family="sans-serif" font-size="10.00" fill="#000000">POST .../type</text>
<text text-anchor="middle" x="192.4415" y="-115" font-family="sans-serif" font-size="10.00" fill="#000000">(填写凭据)</text>
</g>
<!-- api_nav&#45;&gt;api_fill -->
<g id="edge7" class="edge">
<title>api_nav&#45;&gt;api_fill</title>
<path fill="none" stroke="#000000" d="M192.4415,-161.7982C192.4415,-161.7982 192.4415,-150.1903 192.4415,-150.1903"/>
<polygon fill="#000000" stroke="#000000" points="195.9416,-150.1903 192.4415,-140.1903 188.9416,-150.1904 195.9416,-150.1903"/>
</g>
<!-- api_submit -->
<g id="node8" class="node">
<title>api_submit</title>
<path fill="#f5f0ff" stroke="#8b5cf6" d="M217.9366,-86C217.9366,-86 166.9464,-86 166.9464,-86 161.613,-86 156.2797,-80.6667 156.2797,-75.3333 156.2797,-75.3333 156.2797,-64.6667 156.2797,-64.6667 156.2797,-59.3333 161.613,-54 166.9464,-54 166.9464,-54 217.9366,-54 217.9366,-54 223.27,-54 228.6033,-59.3333 228.6033,-64.6667 228.6033,-64.6667 228.6033,-75.3333 228.6033,-75.3333 228.6033,-80.6667 223.27,-86 217.9366,-86"/>
<text text-anchor="middle" x="192.4415" y="-73" font-family="sans-serif" font-size="10.00" fill="#000000">POST .../click</text>
<text text-anchor="middle" x="192.4415" y="-61" font-family="sans-serif" font-size="10.00" fill="#000000">(提交登录)</text>
</g>
<!-- api_fill&#45;&gt;api_submit -->
<g id="edge8" class="edge">
<title>api_fill&#45;&gt;api_submit</title>
<path fill="none" stroke="#000000" d="M192.4415,-107.7982C192.4415,-107.7982 192.4415,-96.1903 192.4415,-96.1903"/>
<polygon fill="#000000" stroke="#000000" points="195.9416,-96.1903 192.4415,-86.1903 188.9416,-96.1904 195.9416,-96.1903"/>
</g>
<!-- api_cookie -->
<g id="node9" class="node">
<title>api_cookie</title>
<path fill="#ede5ff" stroke="#8b5cf6" d="M229.1489,-32C229.1489,-32 155.7341,-32 155.7341,-32 150.4007,-32 145.0674,-26.6667 145.0674,-21.3333 145.0674,-21.3333 145.0674,-10.6667 145.0674,-10.6667 145.0674,-5.3333 150.4007,0 155.7341,0 155.7341,0 229.1489,0 229.1489,0 234.4823,0 239.8156,-5.3333 239.8156,-10.6667 239.8156,-10.6667 239.8156,-21.3333 239.8156,-21.3333 239.8156,-26.6667 234.4823,-32 229.1489,-32"/>
<text text-anchor="middle" x="192.4415" y="-19" font-family="sans-serif" font-size="10.00" fill="#000000">Cookie 自动持久化</text>
<text text-anchor="middle" x="192.4415" y="-7" font-family="sans-serif" font-size="10.00" fill="#000000">到 profile</text>
</g>
<!-- api_submit&#45;&gt;api_cookie -->
<g id="edge9" class="edge">
<title>api_submit&#45;&gt;api_cookie</title>
<path fill="none" stroke="#000000" d="M192.4415,-53.7982C192.4415,-53.7982 192.4415,-42.1903 192.4415,-42.1903"/>
<polygon fill="#000000" stroke="#000000" points="195.9416,-42.1903 192.4415,-32.1903 188.9416,-42.1904 195.9416,-42.1903"/>
</g>
<!-- auto_load -->
<g id="node11" class="node">
<title>auto_load</title>
<path fill="#e5ffe5" stroke="#22c55e" d="M394.3036,-194C394.3036,-194 274.5794,-194 274.5794,-194 269.246,-194 263.9127,-188.6667 263.9127,-183.3333 263.9127,-183.3333 263.9127,-172.6667 263.9127,-172.6667 263.9127,-167.3333 269.246,-162 274.5794,-162 274.5794,-162 394.3036,-162 394.3036,-162 399.637,-162 404.9703,-167.3333 404.9703,-172.6667 404.9703,-172.6667 404.9703,-183.3333 404.9703,-183.3333 404.9703,-188.6667 399.637,-194 394.3036,-194"/>
<text text-anchor="middle" x="334.4415" y="-181" font-family="sans-serif" font-size="10.00" fill="#000000">Camofox 自动加载 profile</text>
<text text-anchor="middle" x="334.4415" y="-169" font-family="sans-serif" font-size="10.00" fill="#000000">→ 已登录状态</text>
</g>
<!-- followup&#45;&gt;auto_load -->
<g id="edge10" class="edge">
<title>followup&#45;&gt;auto_load</title>
<path fill="none" stroke="#000000" d="M328.4415,-215.8758C328.4415,-215.8758 328.4415,-204.0191 328.4415,-204.0191"/>
<polygon fill="#000000" stroke="#000000" points="331.9416,-204.0191 328.4415,-194.0191 324.9416,-204.0192 331.9416,-204.0191"/>
</g>
</g>
</svg>
