<?xml version="1.0" encoding="UTF-8" standalone="no"?>
<!DOCTYPE svg PUBLIC "-//W3C//DTD SVG 1.1//EN"
 "http://www.w3.org/Graphics/SVG/1.1/DTD/svg11.dtd">
<!-- Generated by graphviz version 15.0.0 (0)
 -->
<!-- Title: ContextAnchor Pages: 1 -->
<svg width="366pt" height="230pt"
 viewBox="0.00 0.00 366.00 230.00" xmlns="http://www.w3.org/2000/svg" xmlns:xlink="http://www.w3.org/1999/xlink">
<g id="graph0" class="graph" transform="scale(1 1) rotate(0) translate(4 225.8)">
<title>ContextAnchor</title>
<g id="clust1" class="cluster">
<title>cluster_hooks</title>
<path fill="#e3f2fd" stroke="#1565c0" d="M20,-20.8C20,-20.8 117.6,-20.8 117.6,-20.8 123.6,-20.8 129.6,-26.8 129.6,-32.8 129.6,-32.8 129.6,-201.8 129.6,-201.8 129.6,-207.8 123.6,-213.8 117.6,-213.8 117.6,-213.8 20,-213.8 20,-213.8 14,-213.8 8,-207.8 8,-201.8 8,-201.8 8,-32.8 8,-32.8 8,-26.8 14,-20.8 20,-20.8"/>
<text xml:space="preserve" text-anchor="middle" x="68.8" y="-200.3" font-family="sans-serif" font-size="10.00" fill="#0d47a1">Hermes 生命周期钩子</text>
</g>
<!-- pre -->
<g id="node1" class="node">
<title>pre</title>
<path fill="#bbdefb" stroke="black" d="M98.35,-88.35C98.35,-88.35 39.25,-88.35 39.25,-88.35 33.25,-88.35 27.25,-82.35 27.25,-76.35 27.25,-76.35 27.25,-41.25 27.25,-41.25 27.25,-35.25 33.25,-29.25 39.25,-29.25 39.25,-29.25 98.35,-29.25 98.35,-29.25 104.35,-29.25 110.35,-35.25 110.35,-41.25 110.35,-41.25 110.35,-76.35 110.35,-76.35 110.35,-82.35 104.35,-88.35 98.35,-88.35"/>
<text xml:space="preserve" text-anchor="middle" x="68.8" y="-69" font-family="sans-serif" font-size="9.00">pre_llm_call</text>
<text xml:space="preserve" text-anchor="middle" x="68.8" y="-58.5" font-family="sans-serif" font-size="9.00">读取 state.json</text>
<text xml:space="preserve" text-anchor="middle" x="68.8" y="-45" font-family="sans-serif" font-size="9.00">→ 注入标头</text>
</g>
<!-- state -->
<g id="node3" class="node">
<title>state</title>
<path fill="#fff3e0" stroke="#e65100" d="M334.82,-183.85C334.82,-183.85 245.72,-183.85 245.72,-183.85 239.72,-183.85 233.72,-177.85 233.72,-171.85 233.72,-171.85 233.72,-121.75 233.72,-121.75 233.72,-115.75 239.72,-109.75 245.72,-109.75 245.72,-109.75 334.82,-109.75 334.82,-109.75 340.82,-109.75 346.82,-115.75 346.82,-121.75 346.82,-121.75 346.82,-171.85 346.82,-171.85 346.82,-177.85 340.82,-183.85 334.82,-183.85"/>
<text xml:space="preserve" text-anchor="middle" x="290.27" y="-164.5" font-family="sans-serif" font-size="9.00">state.json</text>
<text xml:space="preserve" text-anchor="middle" x="290.27" y="-154" font-family="sans-serif" font-size="9.00">~/.hermes/persistent/</text>
<text xml:space="preserve" text-anchor="middle" x="290.27" y="-143.5" font-family="sans-serif" font-size="9.00">current_host</text>
<text xml:space="preserve" text-anchor="middle" x="290.27" y="-133" font-family="sans-serif" font-size="9.00">current_task</text>
<text xml:space="preserve" text-anchor="middle" x="290.27" y="-122.5" font-family="sans-serif" font-size="9.00">thread_session_ids</text>
</g>
<!-- pre&#45;&gt;state -->
<g id="edge1" class="edge">
<title>pre&#45;&gt;state</title>
<path fill="none" stroke="black" stroke-dasharray="5,2" d="M110.85,-68.15C139.2,-68.15 171.45,-68.15 171.45,-68.15 171.45,-68.15 171.45,-134.7 171.45,-134.7 171.45,-134.7 221.79,-134.7 221.79,-134.7"/>
<polygon fill="black" stroke="black" points="221.79,-138.2 231.79,-134.7 221.79,-131.2 221.79,-138.2"/>
<text xml:space="preserve" text-anchor="middle" x="171.85" y="-99.95" font-family="Times,serif" font-size="8.00"> 读取</text>
</g>
<!-- sysprompt -->
<g id="node4" class="node">
<title>sysprompt</title>
<path fill="#e8f5e9" stroke="#2e7d32" d="M346.45,-87.6C346.45,-87.6 234.1,-87.6 234.1,-87.6 228.1,-87.6 222.1,-81.6 222.1,-75.6 222.1,-75.6 222.1,-12 222.1,-12 222.1,-6 228.1,0 234.1,0 234.1,0 346.45,0 346.45,0 352.45,0 358.45,-6 358.45,-12 358.45,-12 358.45,-75.6 358.45,-75.6 358.45,-81.6 352.45,-87.6 346.45,-87.6"/>
<text xml:space="preserve" text-anchor="middle" x="290.27" y="-68.25" font-family="sans-serif" font-size="9.00">系统提示词</text>
<text xml:space="preserve" text-anchor="middle" x="290.27" y="-54.75" font-family="sans-serif" font-size="9.00">[AGENT CONTEXT]</text>
<text xml:space="preserve" text-anchor="middle" x="290.27" y="-44.25" font-family="sans-serif" font-size="9.00">host=HomeCentre01</text>
<text xml:space="preserve" text-anchor="middle" x="290.27" y="-33.75" font-family="sans-serif" font-size="9.00">task=network&#45;maintenance</text>
<text xml:space="preserve" text-anchor="middle" x="290.27" y="-23.25" font-family="sans-serif" font-size="9.00">[THREAD HISTORY]</text>
<text xml:space="preserve" text-anchor="middle" x="290.27" y="-12.75" font-family="sans-serif" font-size="9.00">3 sessions</text>
</g>
<!-- pre&#45;&gt;sysprompt -->
<g id="edge3" class="edge">
<title>pre&#45;&gt;sysprompt</title>
<path fill="none" stroke="black" d="M110.72,-48.7C110.72,-48.7 210.46,-48.7 210.46,-48.7"/>
<polygon fill="black" stroke="black" points="210.46,-52.2 220.46,-48.7 210.46,-45.2 210.46,-52.2"/>
<text xml:space="preserve" text-anchor="middle" x="171.85" y="-48.95" font-family="Times,serif" font-size="8.00"> 修改后传给 LLM</text>
</g>
<!-- post -->
<g id="node2" class="node">
<title>post</title>
<path fill="#bbdefb" stroke="black" d="M109.6,-183.1C109.6,-183.1 28,-183.1 28,-183.1 22,-183.1 16,-177.1 16,-171.1 16,-171.1 16,-122.5 16,-122.5 16,-116.5 22,-110.5 28,-110.5 28,-110.5 109.6,-110.5 109.6,-110.5 115.6,-110.5 121.6,-116.5 121.6,-122.5 121.6,-122.5 121.6,-171.1 121.6,-171.1 121.6,-177.1 115.6,-183.1 109.6,-183.1"/>
<text xml:space="preserve" text-anchor="middle" x="68.8" y="-163.75" font-family="sans-serif" font-size="9.00">post_tool_call</text>
<text xml:space="preserve" text-anchor="middle" x="68.8" y="-153.25" font-family="sans-serif" font-size="9.00">→ 记录 session_id</text>
<text xml:space="preserve" text-anchor="middle" x="68.8" y="-139.75" font-family="sans-serif" font-size="9.00">→ 推断 task</text>
<text xml:space="preserve" text-anchor="middle" x="68.8" y="-126.25" font-family="sans-serif" font-size="9.00">→ 检测 SSH</text>
</g>
<!-- post&#45;&gt;state -->
<g id="edge2" class="edge">
<title>post&#45;&gt;state</title>
<path fill="none" stroke="black" stroke-dasharray="5,2" d="M121.85,-158.9C121.85,-158.9 221.88,-158.9 221.88,-158.9"/>
<polygon fill="black" stroke="black" points="221.88,-162.4 231.88,-158.9 221.88,-155.4 221.88,-162.4"/>
<text xml:space="preserve" text-anchor="middle" x="171.85" y="-151.95" font-family="Times,serif" font-size="8.00"> 写入</text>
</g>
</g>
</svg>
