<?xml version="1.0" encoding="UTF-8" standalone="no"?>
<!DOCTYPE svg PUBLIC "-//W3C//DTD SVG 1.1//EN"
 "http://www.w3.org/Graphics/SVG/1.1/DTD/svg11.dtd">
<!-- Generated by graphviz version 15.0.0 (0)
 -->
<!-- Title: ContextAnchor Pages: 1 -->
<svg width="141pt" height="447pt"
 viewBox="0.00 0.00 141.00 447.00" xmlns="http://www.w3.org/2000/svg" xmlns:xlink="http://www.w3.org/1999/xlink">
<g id="graph0" class="graph" transform="scale(1 1) rotate(0) translate(10.8 436.07)">
<title>ContextAnchor</title>
<!-- ssh_connect -->
<g id="node1" class="node">
<title>ssh_connect</title>
<path fill="#e3f2fd" stroke="#4a90d9" d="M98.64,-425.27C98.64,-425.27 51.36,-425.27 51.36,-425.27 45.36,-425.27 39.36,-419.27 39.36,-413.27 39.36,-413.27 39.36,-401.27 39.36,-401.27 39.36,-395.27 45.36,-389.27 51.36,-389.27 51.36,-389.27 98.64,-389.27 98.64,-389.27 104.64,-389.27 110.64,-395.27 110.64,-401.27 110.64,-401.27 110.64,-413.27 110.64,-413.27 110.64,-419.27 104.64,-425.27 98.64,-425.27"/>
<text xml:space="preserve" text-anchor="middle" x="75" y="-405.47" font-family="sans-serif" font-size="9.00">SSH 连接建立</text>
</g>
<!-- record_sid -->
<g id="node2" class="node">
<title>record_sid</title>
<path fill="#e3f2fd" stroke="#4a90d9" d="M103.52,-366.27C103.52,-366.27 46.48,-366.27 46.48,-366.27 40.48,-366.27 34.48,-360.27 34.48,-354.27 34.48,-354.27 34.48,-342.27 34.48,-342.27 34.48,-336.27 40.48,-330.27 46.48,-330.27 46.48,-330.27 103.52,-330.27 103.52,-330.27 109.52,-330.27 115.52,-336.27 115.52,-342.27 115.52,-342.27 115.52,-354.27 115.52,-354.27 115.52,-360.27 109.52,-366.27 103.52,-366.27"/>
<text xml:space="preserve" text-anchor="middle" x="75" y="-346.47" font-family="sans-serif" font-size="9.00">记录 session_id</text>
</g>
<!-- ssh_connect&#45;&gt;record_sid -->
<g id="edge1" class="edge">
<title>ssh_connect&#45;&gt;record_sid</title>
<path fill="none" stroke="black" d="M75,-388.86C75,-385.43 75,-381.75 75,-378.07"/>
<polygon fill="black" stroke="black" points="78.5,-378.09 75,-368.09 71.5,-378.09 78.5,-378.09"/>
</g>
<!-- infer_task -->
<g id="node3" class="node">
<title>infer_task</title>
<path fill="#e3f2fd" stroke="#4a90d9" d="M90.39,-307.27C90.39,-307.27 59.61,-307.27 59.61,-307.27 53.61,-307.27 47.61,-301.27 47.61,-295.27 47.61,-295.27 47.61,-283.27 47.61,-283.27 47.61,-277.27 53.61,-271.27 59.61,-271.27 59.61,-271.27 90.39,-271.27 90.39,-271.27 96.39,-271.27 102.39,-277.27 102.39,-283.27 102.39,-283.27 102.39,-295.27 102.39,-295.27 102.39,-301.27 96.39,-307.27 90.39,-307.27"/>
<text xml:space="preserve" text-anchor="middle" x="75" y="-287.47" font-family="sans-serif" font-size="9.00">推断 task</text>
</g>
<!-- record_sid&#45;&gt;infer_task -->
<g id="edge2" class="edge">
<title>record_sid&#45;&gt;infer_task</title>
<path fill="none" stroke="black" d="M75,-329.86C75,-326.43 75,-322.75 75,-319.07"/>
<polygon fill="black" stroke="black" points="78.5,-319.09 75,-309.09 71.5,-319.09 78.5,-319.09"/>
</g>
<!-- detect_ssh -->
<g id="node4" class="node">
<title>detect_ssh</title>
<path fill="#e3f2fd" stroke="#4a90d9" d="M90,-248.27C90,-248.27 60,-248.27 60,-248.27 54,-248.27 48,-242.27 48,-236.27 48,-236.27 48,-224.27 48,-224.27 48,-218.27 54,-212.27 60,-212.27 60,-212.27 90,-212.27 90,-212.27 96,-212.27 102,-218.27 102,-224.27 102,-224.27 102,-236.27 102,-236.27 102,-242.27 96,-248.27 90,-248.27"/>
<text xml:space="preserve" text-anchor="middle" x="75" y="-228.47" font-family="sans-serif" font-size="9.00">检测 SSH</text>
</g>
<!-- infer_task&#45;&gt;detect_ssh -->
<g id="edge3" class="edge">
<title>infer_task&#45;&gt;detect_ssh</title>
<path fill="none" stroke="black" d="M75,-270.86C75,-267.43 75,-263.75 75,-260.07"/>
<polygon fill="black" stroke="black" points="78.5,-260.09 75,-250.09 71.5,-260.09 78.5,-260.09"/>
</g>
<!-- cond -->
<g id="node5" class="node">
<title>cond</title>
<polygon fill="#fff3cd" stroke="#f0ad4e" points="75,-189.27 35.61,-159.51 75,-129.75 114.39,-159.51 75,-189.27"/>
<text xml:space="preserve" text-anchor="middle" x="75" y="-162.96" font-family="sans-serif" font-size="9.00" fill="#856404">SSH</text>
<text xml:space="preserve" text-anchor="middle" x="75" y="-152.46" font-family="sans-serif" font-size="9.00" fill="#856404">已检测?</text>
</g>
<!-- detect_ssh&#45;&gt;cond -->
<g id="edge4" class="edge">
<title>detect_ssh&#45;&gt;cond</title>
<path fill="none" stroke="black" d="M75,-211.92C75,-208.58 75,-204.95 75,-201.22"/>
<polygon fill="black" stroke="black" points="78.5,-201.41 75,-191.41 71.5,-201.41 78.5,-201.41"/>
</g>
<!-- inject -->
<g id="node6" class="node">
<title>inject</title>
<path fill="#e8f8e8" stroke="#27ae60" d="M42,-95C42,-95 12,-95 12,-95 6,-95 0,-89 0,-83 0,-83 0,-71 0,-71 0,-65 6,-59 12,-59 12,-59 42,-59 42,-59 48,-59 54,-65 54,-71 54,-71 54,-83 54,-83 54,-89 48,-95 42,-95"/>
<text xml:space="preserve" text-anchor="middle" x="27" y="-75.2" font-family="sans-serif" font-size="9.00">注入标头</text>
</g>
<!-- cond&#45;&gt;inject -->
<g id="edge5" class="edge">
<title>cond&#45;&gt;inject</title>
<path fill="none" stroke="#27ae60" stroke-width="1.5" d="M63.13,-138.61C57.22,-128.69 49.97,-116.53 43.53,-105.72"/>
<polygon fill="#27ae60" stroke="#27ae60" stroke-width="1.5" points="46.71,-104.23 38.59,-97.44 40.7,-107.82 46.71,-104.23"/>
<text xml:space="preserve" text-anchor="middle" x="55.12" y="-111.15" font-family="Times,serif" font-size="8.00" fill="#27ae60">是</text>
</g>
<!-- wait -->
<g id="node8" class="node">
<title>wait</title>
<path fill="#fce4ec" stroke="#e53935" d="M107,-95C107,-95 77,-95 77,-95 71,-95 65,-89 65,-83 65,-83 65,-71 65,-71 65,-65 71,-59 77,-59 77,-59 107,-59 107,-59 113,-59 119,-65 119,-71 119,-71 119,-83 119,-83 119,-89 113,-95 107,-95"/>
<text xml:space="preserve" text-anchor="middle" x="92" y="-75.78" font-family="sans-serif" font-size="8.00">等待重试</text>
</g>
<!-- cond&#45;&gt;wait -->
<g id="edge6" class="edge">
<title>cond&#45;&gt;wait</title>
<path fill="none" stroke="#e53935" stroke-width="1.5" stroke-dasharray="5,2" d="M80.29,-133.48C82.04,-125.17 84.01,-115.84 85.83,-107.24"/>
<polygon fill="#e53935" stroke="#e53935" stroke-width="1.5" points="89.22,-108.09 87.87,-97.58 82.37,-106.64 89.22,-108.09"/>
<text xml:space="preserve" text-anchor="middle" x="90.14" y="-111.15" font-family="Times,serif" font-size="8.00" fill="#e53935">否</text>
</g>
<!-- done -->
<g id="node7" class="node">
<title>done</title>
<path fill="#27ae60" stroke="#1e8449" d="M42,-36C42,-36 12,-36 12,-36 6,-36 0,-30 0,-24 0,-24 0,-12 0,-12 0,-6 6,0 12,0 12,0 42,0 42,0 48,0 54,-6 54,-12 54,-12 54,-24 54,-24 54,-30 48,-36 42,-36"/>
<text xml:space="preserve" text-anchor="middle" x="27" y="-16.2" font-family="sans-serif" font-size="9.00" fill="white">完成</text>
</g>
<!-- inject&#45;&gt;done -->
<g id="edge7" class="edge">
<title>inject&#45;&gt;done</title>
<path fill="none" stroke="#27ae60" stroke-width="1.5" d="M27,-58.59C27,-55.38 27,-51.96 27,-48.51"/>
<polygon fill="#27ae60" stroke="#27ae60" stroke-width="1.5" points="30.5,-48.58 27,-38.58 23.5,-48.58 30.5,-48.58"/>
</g>
</g>
</svg>
