<?xml version="1.0" encoding="UTF-8" standalone="no"?>
<!DOCTYPE svg PUBLIC "-//W3C//DTD SVG 1.1//EN"
 "http://www.w3.org/Graphics/SVG/1.1/DTD/svg11.dtd">
<!-- Generated by graphviz version 15.0.0 (0)
 -->
<!-- Title: CredentialsDir Pages: 1 -->
<svg width="327pt" height="253pt"
 viewBox="0.00 0.00 327.00 253.00" xmlns="http://www.w3.org/2000/svg" xmlns:xlink="http://www.w3.org/1999/xlink">
<g id="graph0" class="graph" transform="scale(1 1) rotate(0) translate(4 249.43)">
<title>CredentialsDir</title>
<!-- root -->
<g id="node1" class="node">
<title>root</title>
<polygon fill="#fff8e1" stroke="#f9a825" points="112.05,-141.3 109.05,-145.3 88.05,-145.3 85.05,-141.3 0,-141.3 0,-102 112.05,-102 112.05,-141.3"/>
<text xml:space="preserve" text-anchor="middle" x="56.02" y="-118.35" font-family="monospace, sans-serif" font-size="9.00">~/.astra/credentials/</text>
</g>
<!-- readme -->
<g id="node2" class="node">
<title>readme</title>
<polygon fill="#fff8e1" stroke="#f9a825" points="319.35,-245.43 316.35,-249.43 295.35,-249.43 292.35,-245.43 148.05,-245.43 148.05,-203.88 319.35,-203.88 319.35,-245.43"/>
<text xml:space="preserve" text-anchor="middle" x="233.7" y="-222.47" font-family="monospace, sans-serif" font-size="9.00">README.md（索引，权限 600）</text>
</g>
<!-- root&#45;&gt;readme -->
<g id="edge1" class="edge">
<title>root&#45;&gt;readme</title>
<path fill="none" stroke="black" d="M112.34,-121.65C133.42,-121.65 152.35,-121.65 152.35,-121.65 152.35,-121.65 152.35,-173.71 152.35,-203.81"/>
</g>
<!-- personal -->
<g id="node3" class="node">
<title>personal</title>
<polygon fill="#fff8e1" stroke="#f9a825" points="310.73,-175.3 307.73,-179.3 286.73,-179.3 283.73,-175.3 156.68,-175.3 156.68,-136 310.73,-136 310.73,-175.3"/>
<text xml:space="preserve" text-anchor="middle" x="233.7" y="-152.35" font-family="monospace, sans-serif" font-size="9.00">personal&#45;credentials.yaml.gpg</text>
</g>
<!-- root&#45;&gt;personal -->
<g id="edge2" class="edge">
<title>root&#45;&gt;personal</title>
<path fill="none" stroke="black" d="M56.35,-141.69C56.35,-150.25 56.35,-158.3 56.35,-158.3 56.35,-158.3 108.64,-158.3 156.43,-158.3"/>
</g>
<!-- work -->
<g id="node4" class="node">
<title>work</title>
<polygon fill="#fff8e1" stroke="#f9a825" points="303.23,-107.3 300.23,-111.3 279.23,-111.3 276.23,-107.3 164.18,-107.3 164.18,-68 303.23,-68 303.23,-107.3"/>
<text xml:space="preserve" text-anchor="middle" x="233.7" y="-84.35" font-family="monospace, sans-serif" font-size="9.00">work&#45;credentials.yaml.gpg</text>
</g>
<!-- root&#45;&gt;work -->
<g id="edge3" class="edge">
<title>root&#45;&gt;work</title>
<path fill="none" stroke="black" d="M74.35,-101.61C74.35,-93.05 74.35,-85 74.35,-85 74.35,-85 120.99,-85 163.81,-85"/>
</g>
<!-- other -->
<g id="node5" class="node">
<title>other</title>
<polygon fill="#fff8e1" stroke="#f9a825" points="304.35,-39.3 301.35,-43.3 280.35,-43.3 277.35,-39.3 163.05,-39.3 163.05,0 304.35,0 304.35,-39.3"/>
<text xml:space="preserve" text-anchor="middle" x="233.7" y="-16.35" font-family="monospace, sans-serif" font-size="9.00">other&#45;credentials.yaml.gpg</text>
</g>
<!-- root&#45;&gt;other -->
<g id="edge4" class="edge">
<title>root&#45;&gt;other</title>
<path fill="none" stroke="black" d="M37.35,-101.98C37.35,-72.34 37.35,-19.65 37.35,-19.65 37.35,-19.65 106.57,-19.65 162.81,-19.65"/>
</g>
</g>
</svg>
