<?xml version="1.0" encoding="UTF-8" standalone="no"?>
<!DOCTYPE svg PUBLIC "-//W3C//DTD SVG 1.1//EN"
 "http://www.w3.org/Graphics/SVG/1.1/DTD/svg11.dtd">
<!-- Generated by graphviz version 15.0.0 (0)
 -->
<!-- Title: Credentials Pages: 1 -->
<svg width="100%" viewBox="0.00 0.00 387.00 268.00" xmlns="http://www.w3.org/2000/svg" xmlns:xlink="http://www.w3.org/1999/xlink" style="max-width:387pt;">
<g id="graph0" class="graph" transform="scale(1 1) rotate(0) translate(4 264)">
<title>Credentials</title>
<polygon fill="white" stroke="none" points="-4,4 -4,-264 383,-264 383,4 -4,4"/>
<g id="clust1" class="cluster">
<title>cluster_dotenv</title>
<polygon fill="#fff3e0" stroke="#e65100" points="123,-172 123,-252 281,-252 281,-172 123,-172"/>
<text xml:space="preserve" text-anchor="middle" x="202" y="-239.45" font-family="Times,serif" font-size="9.00" fill="#bf360c">~/.hermes/.env（明文口令容器）</text>
</g>
<g id="clust2" class="cluster">
<title>cluster_credentials</title>
<polygon fill="#f0f0f0" stroke="#666666" points="8,-8 8,-128.5 371,-128.5 371,-8 8,-8"/>
<text xml:space="preserve" text-anchor="middle" x="189.5" y="-115.95" font-family="Times,serif" font-size="9.00" fill="#444444">~/.astra/credentials/（凭据仓库）</text>
</g>
<g id="clust3" class="cluster">
<title>cluster_web</title>
<polygon fill="#fff8e1" stroke="#f9a825" points="16,-16 16,-99 178,-99 178,-16 16,-16"/>
<text xml:space="preserve" text-anchor="middle" x="97" y="-86.45" font-family="Times,serif" font-size="9.00" fill="#f57f17">系统一：Web 凭据（KeePassXC）</text>
</g>
<g id="clust4" class="cluster">
<title>cluster_device</title>
<polygon fill="#e8f5e9" stroke="#43a047" points="186,-16 186,-99 363,-99 363,-16 186,-16"/>
<text xml:space="preserve" text-anchor="middle" x="274.5" y="-86.45" font-family="Times,serif" font-size="9.00" fill="#2e7d32">系统二：设备凭据（GPG 加密 YAML）</text>
</g>
<!-- dotenv -->
<g id="node1" class="node">
<title>dotenv</title>
<polygon fill="none" stroke="black" points="266.62,-222.5 131.38,-222.5 131.38,-180 272.62,-180 272.62,-216.5 266.62,-222.5"/>
<polyline fill="none" stroke="black" points="266.62,-222.5 266.62,-216.5"/>
<polyline fill="none" stroke="black" points="272.62,-216.5 266.62,-216.5"/>
<text xml:space="preserve" text-anchor="middle" x="202" y="-209.95" font-family="sans-serif" font-size="9.00">GPG_Key_Desktop01=...</text>
<text xml:space="preserve" text-anchor="middle" x="202" y="-199.45" font-family="sans-serif" font-size="9.00">KP_Password=...</text>
<text xml:space="preserve" text-anchor="middle" x="202" y="-188.95" font-family="sans-serif" font-size="9.00">（600 权限，不提交版本管理）</text>
</g>
<!-- kp -->
<g id="node2" class="node">
<title>kp</title>
<polygon fill="none" stroke="black" points="164,-69.5 52,-69.5 52,-24 170,-24 170,-63.5 164,-69.5"/>
<polyline fill="none" stroke="black" points="164,-69.5 164,-63.5"/>
<polyline fill="none" stroke="black" points="170,-63.5 164,-63.5"/>
<text xml:space="preserve" text-anchor="middle" x="111" y="-56.95" font-family="sans-serif" font-size="9.00" fill="#f9a825">personal.kdbx</text>
<text xml:space="preserve" text-anchor="middle" x="111" y="-46.45" font-family="sans-serif" font-size="9.00" fill="#f9a825">（单个 vault 文件）</text>
<text xml:space="preserve" text-anchor="middle" x="111" y="-32.95" font-family="sans-serif" font-size="9.00" fill="#f9a825">存储：API Key / 网页密码</text>
</g>
<!-- dotenv&#45;&gt;kp -->
<g id="edge1" class="edge">
<title>dotenv:sw&#45;&gt;kp:w</title>
<path fill="none" stroke="#f9a825" d="M180.3,-178.55C171.51,-169.76 167.45,-169.77 157.75,-162 108.95,-122.91 78.87,-125.84 51.75,-69.5 49.97,-65.8 47.8,-61.35 46.53,-57.37"/>
<polygon fill="#f9a825" stroke="#f9a825" points="49.75,-58.74 50.19,-48.16 43.25,-56.16 49.75,-58.74"/>
<text xml:space="preserve" text-anchor="middle" x="199.38" y="-154.4" font-family="Times,serif" font-size="8.00">读取 KP_Password</text>
<text xml:space="preserve" text-anchor="middle" x="199.38" y="-141.65" font-family="Times,serif" font-size="8.00">打开 KeePassXC 数据库</text>
</g>
<!-- gp -->
<g id="node3" class="node">
<title>gp</title>
<polygon fill="none" stroke="black" points="320.12,-69.5 193.88,-69.5 193.88,-24 326.12,-24 326.12,-63.5 320.12,-69.5"/>
<polyline fill="none" stroke="black" points="320.12,-69.5 320.12,-63.5"/>
<polyline fill="none" stroke="black" points="326.12,-63.5 320.12,-63.5"/>
<text xml:space="preserve" text-anchor="middle" x="260" y="-56.95" font-family="sans-serif" font-size="9.00" fill="#43a047">device&#45;credentials.yaml.gpg</text>
<text xml:space="preserve" text-anchor="middle" x="260" y="-46.45" font-family="sans-serif" font-size="9.00" fill="#43a047">（GPG 对称加密 YAML）</text>
<text xml:space="preserve" text-anchor="middle" x="260" y="-32.95" font-family="sans-serif" font-size="9.00" fill="#43a047">存储：SSH 密码 / sudo 密码</text>
</g>
<!-- dotenv&#45;&gt;gp -->
<g id="edge2" class="edge">
<title>dotenv:se&#45;&gt;gp:e</title>
<path fill="none" stroke="#43a047" d="M223.7,-178.55C273.21,-129.04 387.01,-56.23 338.8,-47.6"/>
<polygon fill="#43a047" stroke="#43a047" points="339.14,-44.11 328.91,-46.86 338.63,-51.09 339.14,-44.11"/>
<text xml:space="preserve" text-anchor="middle" x="313.27" y="-154.4" font-family="Times,serif" font-size="8.00">读取 GPG_Key_Desktop01</text>
<text xml:space="preserve" text-anchor="middle" x="313.27" y="-141.65" font-family="Times,serif" font-size="8.00">解密 GPG 加密文件</text>
</g>
</g>
</svg>
