<?xml version="1.0" encoding="UTF-8" standalone="no"?>
<!DOCTYPE svg PUBLIC "-//W3C//DTD SVG 1.1//EN"
 "http://www.w3.org/Graphics/SVG/1.1/DTD/svg11.dtd">
<!-- Generated by graphviz version 15.0.0 (0)
 -->
<!-- Title: HermesTimeline Pages: 1 -->
<svg width="277pt" height="458pt"
 viewBox="0.00 0.00 277.00 458.00" xmlns="http://www.w3.org/2000/svg" xmlns:xlink="http://www.w3.org/1999/xlink">
<g id="graph0" class="graph" transform="scale(1 1) rotate(0) translate(4 454.42)">
<title>HermesTimeline</title>
<polygon fill="white" stroke="none" points="-4,4 -4,-454.42 273,-454.42 273,4 -4,4"/>
<!-- openclaw -->
<g id="node1" class="node">
<title>openclaw</title>
<polygon fill="#d4e6f1" stroke="none" points="67,-417.42 67,-446.42 195,-446.42 195,-417.42 67,-417.42"/>
<polygon fill="none" stroke="black" points="67,-417.42 67,-446.42 195,-446.42 195,-417.42 67,-417.42"/>
<text xml:space="preserve" text-anchor="start" x="121.25" y="-430.92" font-family="sans-serif" font-weight="bold" font-size="10.00">早期</text>
<polygon fill="none" stroke="black" points="67,-373.38 67,-417.42 195,-417.42 195,-373.38 67,-373.38"/>
<text xml:space="preserve" text-anchor="start" x="96.88" y="-398.42" font-family="sans-serif" font-size="10.00">OpenClaw 发布</text>
<text xml:space="preserve" text-anchor="start" x="74" y="-383.38" font-family="sans-serif" font-size="10.00">社区驱动的 AI Agent 框架</text>
</g>
<!-- fork2024 -->
<g id="node2" class="node">
<title>fork2024</title>
<polygon fill="#f0e6d4" stroke="none" points="79,-300.38 79,-329.38 183,-329.38 183,-300.38 79,-300.38"/>
<polygon fill="none" stroke="black" points="79,-300.38 79,-329.38 183,-329.38 183,-300.38 79,-300.38"/>
<text xml:space="preserve" text-anchor="start" x="103.25" y="-313.88" font-family="sans-serif" font-weight="bold" font-size="10.00">2024 年中期</text>
<polygon fill="none" stroke="black" points="79,-257.13 79,-300.38 183,-300.38 183,-257.13 79,-257.13"/>
<text xml:space="preserve" text-anchor="start" x="86" y="-281.38" font-family="sans-serif" font-size="10.00">Hermes Agent 分支</text>
<text xml:space="preserve" text-anchor="start" x="96.88" y="-267.13" font-family="sans-serif" font-size="10.00">Nous Research</text>
</g>
<!-- openclaw&#45;&gt;fork2024 -->
<g id="edge1" class="edge">
<title>openclaw&#45;&gt;fork2024</title>
<path fill="none" stroke="black" d="M131,-369.43C131,-357.72 131,-344.94 131,-333.26"/>
</g>
<!-- hermes -->
<g id="node3" class="node">
<title>hermes</title>
<text xml:space="preserve" text-anchor="start" x="12" y="-200.63" font-family="sans-serif" font-weight="bold" font-size="10.00">Hermes 团队专注：</text>
<text xml:space="preserve" text-anchor="start" x="12" y="-174.88" font-family="sans-serif" font-size="10.00">• 跨平台 Gateway</text>
<text xml:space="preserve" text-anchor="start" x="12" y="-151.83" font-family="sans-serif" font-size="10.00">• 持久记忆系统</text>
<text xml:space="preserve" text-anchor="start" x="12" y="-128.79" font-family="sans-serif" font-size="10.00">• 多 Provider 支持</text>
</g>
<!-- fork2024&#45;&gt;hermes -->
<g id="edge2" class="edge">
<title>fork2024&#45;&gt;hermes</title>
<path fill="none" stroke="black" d="M92.5,-253.33C92.5,-253.33 92.5,-224.45 92.5,-224.45"/>
<polygon fill="black" stroke="black" points="94.6,-224.45 92.5,-218.45 90.4,-224.45 94.6,-224.45"/>
</g>
<!-- openclaw_now -->
<g id="node4" class="node">
<title>openclaw_now</title>
<text xml:space="preserve" text-anchor="start" x="155" y="-200.63" font-family="sans-serif" font-weight="bold" font-size="10.00">OpenClaw 团队专注：</text>
<text xml:space="preserve" text-anchor="start" x="155" y="-174.88" font-family="sans-serif" font-size="10.00">• 轻量级 CLI</text>
<text xml:space="preserve" text-anchor="start" x="155" y="-151.83" font-family="sans-serif" font-size="10.00">• 本地优先</text>
<text xml:space="preserve" text-anchor="start" x="155" y="-128.79" font-family="sans-serif" font-size="10.00">• 极简架构</text>
</g>
<!-- fork2024&#45;&gt;openclaw_now -->
<g id="edge3" class="edge">
<title>fork2024&#45;&gt;openclaw_now</title>
<path fill="none" stroke="black" d="M167,-253.33C167,-253.33 167,-224.45 167,-224.45"/>
<polygon fill="black" stroke="black" points="169.1,-224.45 167,-218.45 164.9,-224.45 169.1,-224.45"/>
</g>
<!-- now_label -->
<g id="node5" class="node">
<title>now_label</title>
<polygon fill="#e8f5e9" stroke="none" points="60.62,-48 60.62,-77 201.38,-77 201.38,-48 60.62,-48"/>
<polygon fill="none" stroke="black" points="60.62,-48 60.62,-77 201.38,-77 201.38,-48 60.62,-48"/>
<text xml:space="preserve" text-anchor="start" x="121.25" y="-61.5" font-family="sans-serif" font-weight="bold" font-size="10.00">现在</text>
<polygon fill="none" stroke="black" points="60.62,-4 60.62,-48 201.38,-48 201.38,-4 60.62,-4"/>
<text xml:space="preserve" text-anchor="start" x="101.75" y="-29" font-family="sans-serif" font-size="10.00">两个独立项目</text>
<text xml:space="preserve" text-anchor="start" x="67.62" y="-14" font-family="sans-serif" font-size="10.00">共享部分基因但走向不同方向</text>
</g>
<!-- hermes&#45;&gt;now_label -->
<g id="edge4" class="edge">
<title>hermes&#45;&gt;now_label</title>
<path fill="none" stroke="black" stroke-dasharray="5,2" d="M83.31,-117.04C83.31,-105.02 83.31,-92.33 83.31,-80.81"/>
</g>
<!-- openclaw_now&#45;&gt;now_label -->
<g id="edge5" class="edge">
<title>openclaw_now&#45;&gt;now_label</title>
<path fill="none" stroke="black" stroke-dasharray="5,2" d="M176.19,-117.04C176.19,-105.02 176.19,-92.33 176.19,-80.81"/>
</g>
</g>
</svg>
