<?xml version="1.0" encoding="UTF-8" standalone="no"?>
<!DOCTYPE svg PUBLIC "-//W3C//DTD SVG 1.1//EN"
 "http://www.w3.org/Graphics/SVG/1.1/DTD/svg11.dtd">
<!-- Generated by graphviz version 15.0.0 (0)
 -->
<!-- Title: KBPG Pages: 1 -->
<svg width="400pt" height="275pt"
 viewBox="0.00 0.00 400.00 275.00" xmlns="http://www.w3.org/2000/svg" xmlns:xlink="http://www.w3.org/1999/xlink">
<g id="graph0" class="graph" transform="scale(1 1) rotate(0) translate(4 270.6)">
<title>KBPG</title>
<polygon fill="white" stroke="none" points="-4,4 -4,-270.6 395.77,-270.6 395.77,4 -4,4"/>
<!-- pg -->
<g id="node1" class="node">
<title>pg</title>
<path fill="#e3f2fd" stroke="black" d="M229.9,-266.6C229.9,-266.6 168.25,-266.6 168.25,-266.6 162.25,-266.6 156.25,-260.6 156.25,-254.6 156.25,-254.6 156.25,-237.2 156.25,-237.2 156.25,-231.2 162.25,-225.2 168.25,-225.2 168.25,-225.2 229.9,-225.2 229.9,-225.2 235.9,-225.2 241.9,-231.2 241.9,-237.2 241.9,-237.2 241.9,-254.6 241.9,-254.6 241.9,-260.6 235.9,-266.6 229.9,-266.6"/>
<text xml:space="preserve" text-anchor="middle" x="199.07" y="-249.9" font-family="sans-serif" font-size="10.00">PostgreSQL 16</text>
<text xml:space="preserve" text-anchor="middle" x="199.07" y="-237.9" font-family="sans-serif" font-size="10.00">astra_kb 数据库</text>
</g>
<!-- schemas -->
<g id="node2" class="node">
<title>schemas</title>
<path fill="#fff3e0" stroke="black" d="M108.15,-198.7C108.15,-198.7 12,-198.7 12,-198.7 6,-198.7 0,-192.7 0,-186.7 0,-186.7 0,-148.3 0,-148.3 0,-142.3 6,-136.3 12,-136.3 12,-136.3 108.15,-136.3 108.15,-136.3 114.15,-136.3 120.15,-142.3 120.15,-148.3 120.15,-148.3 120.15,-186.7 120.15,-186.7 120.15,-192.7 114.15,-198.7 108.15,-198.7"/>
<text xml:space="preserve" text-anchor="middle" x="60.07" y="-182.95" font-family="sans-serif" font-size="9.00">每个 KB 独立 schema</text>
<text xml:space="preserve" text-anchor="middle" x="60.07" y="-169.45" font-family="sans-serif" font-size="9.00">kb_{name}.chunks</text>
<text xml:space="preserve" text-anchor="middle" x="60.07" y="-158.95" font-family="sans-serif" font-size="9.00">物理隔离</text>
<text xml:space="preserve" text-anchor="middle" x="60.07" y="-145.45" font-family="sans-serif" font-size="9.00">DROP SCHEMA CASCADE</text>
</g>
<!-- pg&#45;&gt;schemas -->
<g id="edge1" class="edge">
<title>pg&#45;&gt;schemas</title>
<path fill="none" stroke="black" d="M155.86,-246C115.05,-246 60.07,-246 60.07,-246 60.07,-246 60.07,-206.49 60.07,-206.49"/>
<polygon fill="black" stroke="black" points="62.18,-206.49 60.08,-200.49 57.98,-206.49 62.18,-206.49"/>
</g>
<!-- fts -->
<g id="node3" class="node">
<title>fts</title>
<path fill="#e8f5e9" stroke="black" d="M244.15,-200.2C244.15,-200.2 154,-200.2 154,-200.2 148,-200.2 142,-194.2 142,-188.2 142,-188.2 142,-146.8 142,-146.8 142,-140.8 148,-134.8 154,-134.8 154,-134.8 244.15,-134.8 244.15,-134.8 250.15,-134.8 256.15,-140.8 256.15,-146.8 256.15,-146.8 256.15,-188.2 256.15,-188.2 256.15,-194.2 250.15,-200.2 244.15,-200.2"/>
<text xml:space="preserve" text-anchor="middle" x="199.07" y="-184.45" font-family="sans-serif" font-size="9.00">全文搜索</text>
<text xml:space="preserve" text-anchor="middle" x="199.07" y="-170.95" font-family="sans-serif" font-size="9.00">tsvector 列</text>
<text xml:space="preserve" text-anchor="middle" x="199.07" y="-157.45" font-family="sans-serif" font-size="9.00">GENERATED ALWAYS AS</text>
<text xml:space="preserve" text-anchor="middle" x="199.07" y="-146.95" font-family="sans-serif" font-size="9.00">GIN 索引</text>
</g>
<!-- pg&#45;&gt;fts -->
<g id="edge2" class="edge">
<title>pg&#45;&gt;fts</title>
<path fill="none" stroke="black" d="M199.07,-224.89C199.07,-224.89 199.07,-208.2 199.07,-208.2"/>
<polygon fill="black" stroke="black" points="201.18,-208.2 199.08,-202.2 196.98,-208.2 201.18,-208.2"/>
</g>
<!-- vector -->
<g id="node4" class="node">
<title>vector</title>
<path fill="#f3e5f5" stroke="black" d="M379.77,-200.2C379.77,-200.2 290.38,-200.2 290.38,-200.2 284.38,-200.2 278.38,-194.2 278.38,-188.2 278.38,-188.2 278.38,-146.8 278.38,-146.8 278.38,-140.8 284.38,-134.8 290.38,-134.8 290.38,-134.8 379.77,-134.8 379.77,-134.8 385.77,-134.8 391.77,-140.8 391.77,-146.8 391.77,-146.8 391.77,-188.2 391.77,-188.2 391.77,-194.2 385.77,-200.2 379.77,-200.2"/>
<text xml:space="preserve" text-anchor="middle" x="335.07" y="-184.45" font-family="sans-serif" font-size="9.00">向量搜索</text>
<text xml:space="preserve" text-anchor="middle" x="335.07" y="-170.95" font-family="sans-serif" font-size="9.00">embed_vec vector(1024)</text>
<text xml:space="preserve" text-anchor="middle" x="335.07" y="-160.45" font-family="sans-serif" font-size="9.00">pgvector HNSW 索引</text>
<text xml:space="preserve" text-anchor="middle" x="335.07" y="-146.95" font-family="sans-serif" font-size="9.00">余弦相似度</text>
</g>
<!-- pg&#45;&gt;vector -->
<g id="edge3" class="edge">
<title>pg&#45;&gt;vector</title>
<path fill="none" stroke="black" d="M242.11,-246C281.95,-246 335.07,-246 335.07,-246 335.07,-246 335.07,-207.85 335.07,-207.85"/>
<polygon fill="black" stroke="black" points="337.18,-207.85 335.08,-201.85 332.98,-207.85 337.18,-207.85"/>
</g>
<!-- hybrid -->
<g id="node5" class="node">
<title>hybrid</title>
<path fill="#ffe0b2" stroke="black" d="M256.97,-103.32C256.97,-103.32 191.53,-61.38 191.53,-61.38 186.48,-58.14 186.48,-51.66 191.53,-48.42 191.53,-48.42 256.97,-6.48 256.97,-6.48 262.02,-3.24 272.13,-3.24 277.18,-6.48 277.18,-6.48 342.62,-48.42 342.62,-48.42 347.67,-51.66 347.67,-58.14 342.62,-61.38 342.62,-61.38 277.18,-103.32 277.18,-103.32 272.13,-106.56 262.02,-106.56 256.97,-103.32"/>
<text xml:space="preserve" text-anchor="middle" x="267.07" y="-66.6" font-family="sans-serif" font-size="9.00">hybrid 混合搜索</text>
<text xml:space="preserve" text-anchor="middle" x="267.07" y="-53.1" font-family="sans-serif" font-size="9.00">FTS + vector 融合</text>
<text xml:space="preserve" text-anchor="middle" x="267.07" y="-39.6" font-family="sans-serif" font-size="9.00">默认权重各 50%</text>
</g>
<!-- fts&#45;&gt;hybrid -->
<g id="edge4" class="edge">
<title>fts&#45;&gt;hybrid</title>
<path fill="none" stroke="black" d="M218.79,-134.33C218.79,-134.33 218.79,-86.78 218.79,-86.78"/>
<polygon fill="black" stroke="black" points="220.89,-86.78 218.79,-80.78 216.69,-86.78 220.89,-86.78"/>
</g>
<!-- vector&#45;&gt;hybrid -->
<g id="edge5" class="edge">
<title>vector&#45;&gt;hybrid</title>
<path fill="none" stroke="black" d="M315.55,-134.33C315.55,-134.33 315.55,-86.78 315.55,-86.78"/>
<polygon fill="black" stroke="black" points="317.65,-86.78 315.55,-80.78 313.45,-86.78 317.65,-86.78"/>
</g>
</g>
</svg>
