<?xml version="1.0" encoding="UTF-8" standalone="no"?>
<!DOCTYPE svg PUBLIC "-//W3C//DTD SVG 1.1//EN"
 "http://www.w3.org/Graphics/SVG/1.1/DTD/svg11.dtd">
<!-- Generated by graphviz version 15.0.0 (0)
 -->
<!-- Title: KBSQLite Pages: 1 -->
<svg width="351pt" height="169pt"
 viewBox="0.00 0.00 351.00 169.00" xmlns="http://www.w3.org/2000/svg" xmlns:xlink="http://www.w3.org/1999/xlink">
<g id="graph0" class="graph" transform="scale(1 1) rotate(0) translate(4 164.93)">
<title>KBSQLite</title>
<polygon fill="white" stroke="none" points="-4,4 -4,-164.93 346.55,-164.93 346.55,4 -4,4"/>
<!-- db -->
<g id="node1" class="node">
<title>db</title>
<path fill="#e3f2fd" stroke="black" d="M247.55,-160.93C247.55,-160.93 113,-160.93 113,-160.93 107,-160.93 101,-154.93 101,-148.93 101,-148.93 101,-114.84 101,-114.84 101,-108.84 107,-102.84 113,-102.84 113,-102.84 247.55,-102.84 247.55,-102.84 253.55,-102.84 259.55,-108.84 259.55,-114.84 259.55,-114.84 259.55,-148.93 259.55,-148.93 259.55,-154.93 253.55,-160.93 247.55,-160.93"/>
<text xml:space="preserve" text-anchor="middle" x="180.28" y="-137.03" font-family="sans-serif" font-size="10.00">~/.astra/knowledge&#45;base.db</text>
<text xml:space="preserve" text-anchor="middle" x="180.28" y="-122.78" font-family="sans-serif" font-size="10.00">单文件 SQLite 数据库</text>
</g>
<!-- registry -->
<g id="node2" class="node">
<title>registry</title>
<path fill="#fff3e0" stroke="black" d="M98.55,-73.47C98.55,-73.47 12,-73.47 12,-73.47 6,-73.47 0,-67.47 0,-61.47 0,-61.47 0,-12.38 0,-12.38 0,-6.38 6,-0.38 12,-0.38 12,-0.38 98.55,-0.38 98.55,-0.38 104.55,-0.38 110.55,-6.38 110.55,-12.38 110.55,-12.38 110.55,-61.47 110.55,-61.47 110.55,-67.47 104.55,-73.47 98.55,-73.47"/>
<text xml:space="preserve" text-anchor="middle" x="55.28" y="-49.57" font-family="sans-serif" font-size="10.00">kb_registry</text>
<text xml:space="preserve" text-anchor="middle" x="55.28" y="-35.32" font-family="sans-serif" font-size="10.00">KB 注册表</text>
<text xml:space="preserve" text-anchor="middle" x="55.28" y="-20.32" font-family="sans-serif" font-size="10.00">(名/描述/启用状态)</text>
</g>
<!-- db&#45;&gt;registry -->
<g id="edge1" class="edge">
<title>db&#45;&gt;registry</title>
<path fill="none" stroke="black" d="M105.78,-102.36C105.78,-102.36 105.78,-82.32 105.78,-82.32"/>
<polygon fill="black" stroke="black" points="108.23,-82.32 105.78,-75.32 103.33,-82.32 108.23,-82.32"/>
</g>
<!-- tables -->
<g id="node3" class="node">
<title>tables</title>
<path fill="#e8f5e9" stroke="black" d="M215.68,-73.47C215.68,-73.47 144.88,-73.47 144.88,-73.47 138.88,-73.47 132.88,-67.47 132.88,-61.47 132.88,-61.47 132.88,-12.38 132.88,-12.38 132.88,-6.38 138.88,-0.38 144.88,-0.38 144.88,-0.38 215.68,-0.38 215.68,-0.38 221.68,-0.38 227.68,-6.38 227.68,-12.38 227.68,-12.38 227.68,-61.47 227.68,-61.47 227.68,-67.47 221.68,-73.47 215.68,-73.47"/>
<text xml:space="preserve" text-anchor="middle" x="180.28" y="-49.57" font-family="sans-serif" font-size="10.00">kb_{name}</text>
<text xml:space="preserve" text-anchor="middle" x="180.28" y="-35.32" font-family="sans-serif" font-size="10.00">每个 KB 独立的</text>
<text xml:space="preserve" text-anchor="middle" x="180.28" y="-20.27" font-family="sans-serif" font-size="10.00">数据表</text>
</g>
<!-- db&#45;&gt;tables -->
<g id="edge2" class="edge">
<title>db&#45;&gt;tables</title>
<path fill="none" stroke="black" d="M180.28,-102.36C180.28,-102.36 180.28,-82.32 180.28,-82.32"/>
<polygon fill="black" stroke="black" points="182.73,-82.32 180.28,-75.32 177.83,-82.32 182.73,-82.32"/>
</g>
<!-- fts5 -->
<g id="node4" class="node">
<title>fts5</title>
<path fill="#f3e5f5" stroke="black" d="M330.55,-73.84C330.55,-73.84 262,-73.84 262,-73.84 256,-73.84 250,-67.84 250,-61.84 250,-61.84 250,-12 250,-12 250,-6 256,0 262,0 262,0 330.55,0 330.55,0 336.55,0 342.55,-6 342.55,-12 342.55,-12 342.55,-61.84 342.55,-61.84 342.55,-67.84 336.55,-73.84 330.55,-73.84"/>
<text xml:space="preserve" text-anchor="middle" x="296.27" y="-49.94" font-family="sans-serif" font-size="10.00">FTS5 索引</text>
<text xml:space="preserve" text-anchor="middle" x="296.27" y="-34.94" font-family="sans-serif" font-size="10.00">全文搜索</text>
<text xml:space="preserve" text-anchor="middle" x="296.27" y="-19.94" font-family="sans-serif" font-size="10.00">无需 pgvector</text>
</g>
<!-- db&#45;&gt;fts5 -->
<g id="edge3" class="edge">
<title>db&#45;&gt;fts5</title>
<path fill="none" stroke="black" d="M254.78,-102.36C254.78,-102.36 254.78,-82.66 254.78,-82.66"/>
<polygon fill="black" stroke="black" points="257.23,-82.66 254.78,-75.66 252.33,-82.66 257.23,-82.66"/>
</g>
</g>
</svg>
