<?xml version="1.0" encoding="UTF-8" standalone="no"?>
<!DOCTYPE svg PUBLIC "-//W3C//DTD SVG 1.1//EN"
 "http://www.w3.org/Graphics/SVG/1.1/DTD/svg11.dtd">
<!-- Generated by graphviz version 15.0.0 (0)
 -->
<!-- Title: KBSQLite Pages: 1 -->
<svg width="347pt" height="167pt"
 viewBox="0.00 0.00 347.00 167.00" xmlns="http://www.w3.org/2000/svg" xmlns:xlink="http://www.w3.org/1999/xlink">
<g id="graph0" class="graph" transform="scale(1 1) rotate(0) translate(4 162.6)">
<title>KBSQLite</title>
<polygon fill="white" stroke="none" points="-4,4 -4,-162.6 343.05,-162.6 343.05,4 -4,4"/>
<!-- db -->
<g id="node1" class="node">
<title>db</title>
<path fill="#e3f2fd" stroke="black" d="M243.92,-158.6C243.92,-158.6 113.12,-158.6 113.12,-158.6 107.12,-158.6 101.12,-152.6 101.12,-146.6 101.12,-146.6 101.12,-114.8 101.12,-114.8 101.12,-108.8 107.12,-102.8 113.12,-102.8 113.12,-102.8 243.92,-102.8 243.92,-102.8 249.92,-102.8 255.92,-108.8 255.92,-114.8 255.92,-114.8 255.92,-146.6 255.92,-146.6 255.92,-152.6 249.92,-158.6 243.92,-158.6"/>
<text xml:space="preserve" text-anchor="middle" x="178.52" y="-134.7" font-family="sans-serif" font-size="10.00">~/.astra/knowledge&#45;base.db</text>
<text xml:space="preserve" text-anchor="middle" x="178.52" y="-122.7" font-family="sans-serif" font-size="10.00">单文件 SQLite 数据库</text>
</g>
<!-- registry -->
<g id="node2" class="node">
<title>registry</title>
<path fill="#fff3e0" stroke="black" d="M97.05,-72.3C97.05,-72.3 12,-72.3 12,-72.3 6,-72.3 0,-66.3 0,-60.3 0,-60.3 0,-13.5 0,-13.5 0,-7.5 6,-1.5 12,-1.5 12,-1.5 97.05,-1.5 97.05,-1.5 103.05,-1.5 109.05,-7.5 109.05,-13.5 109.05,-13.5 109.05,-60.3 109.05,-60.3 109.05,-66.3 103.05,-72.3 97.05,-72.3"/>
<text xml:space="preserve" text-anchor="middle" x="54.52" y="-48.4" font-family="sans-serif" font-size="10.00">kb_registry</text>
<text xml:space="preserve" text-anchor="middle" x="54.52" y="-36.4" font-family="sans-serif" font-size="10.00">KB 注册表</text>
<text xml:space="preserve" text-anchor="middle" x="54.52" y="-21.4" font-family="sans-serif" font-size="10.00">(名/描述/启用状态)</text>
</g>
<!-- db&#45;&gt;registry -->
<g id="edge1" class="edge">
<title>db&#45;&gt;registry</title>
<path fill="none" stroke="black" d="M105.09,-102.3C105.09,-102.3 105.09,-81.02 105.09,-81.02"/>
<polygon fill="black" stroke="black" points="107.54,-81.02 105.09,-74.02 102.64,-81.02 107.54,-81.02"/>
</g>
<!-- tables -->
<g id="node3" class="node">
<title>tables</title>
<path fill="#e8f5e9" stroke="black" d="M213.55,-72.3C213.55,-72.3 143.5,-72.3 143.5,-72.3 137.5,-72.3 131.5,-66.3 131.5,-60.3 131.5,-60.3 131.5,-13.5 131.5,-13.5 131.5,-7.5 137.5,-1.5 143.5,-1.5 143.5,-1.5 213.55,-1.5 213.55,-1.5 219.55,-1.5 225.55,-7.5 225.55,-13.5 225.55,-13.5 225.55,-60.3 225.55,-60.3 225.55,-66.3 219.55,-72.3 213.55,-72.3"/>
<text xml:space="preserve" text-anchor="middle" x="178.52" y="-48.4" font-family="sans-serif" font-size="10.00">kb_{name}</text>
<text xml:space="preserve" text-anchor="middle" x="178.52" y="-36.4" font-family="sans-serif" font-size="10.00">每个 KB 独立的</text>
<text xml:space="preserve" text-anchor="middle" x="178.52" y="-21.4" font-family="sans-serif" font-size="10.00">数据表</text>
</g>
<!-- db&#45;&gt;tables -->
<g id="edge2" class="edge">
<title>db&#45;&gt;tables</title>
<path fill="none" stroke="black" d="M178.52,-102.3C178.52,-102.3 178.52,-81.02 178.52,-81.02"/>
<polygon fill="black" stroke="black" points="180.98,-81.02 178.53,-74.02 176.08,-81.02 180.98,-81.02"/>
</g>
<!-- fts5 -->
<g id="node4" class="node">
<title>fts5</title>
<path fill="#f3e5f5" stroke="black" d="M327.05,-73.8C327.05,-73.8 260,-73.8 260,-73.8 254,-73.8 248,-67.8 248,-61.8 248,-61.8 248,-12 248,-12 248,-6 254,0 260,0 260,0 327.05,0 327.05,0 333.05,0 339.05,-6 339.05,-12 339.05,-12 339.05,-61.8 339.05,-61.8 339.05,-67.8 333.05,-73.8 327.05,-73.8"/>
<text xml:space="preserve" text-anchor="middle" x="293.52" y="-49.9" font-family="sans-serif" font-size="10.00">FTS5 索引</text>
<text xml:space="preserve" text-anchor="middle" x="293.52" y="-34.9" font-family="sans-serif" font-size="10.00">全文搜索</text>
<text xml:space="preserve" text-anchor="middle" x="293.52" y="-19.9" font-family="sans-serif" font-size="10.00">无需 pgvector</text>
</g>
<!-- db&#45;&gt;fts5 -->
<g id="edge3" class="edge">
<title>db&#45;&gt;fts5</title>
<path fill="none" stroke="black" d="M251.96,-102.3C251.96,-102.3 251.96,-82.73 251.96,-82.73"/>
<polygon fill="black" stroke="black" points="254.41,-82.73 251.96,-75.73 249.51,-82.73 254.41,-82.73"/>
</g>
</g>
</svg>
