<?xml version="1.0" encoding="UTF-8" standalone="no"?>
<!DOCTYPE svg PUBLIC "-//W3C//DTD SVG 1.1//EN"
 "http://www.w3.org/Graphics/SVG/1.1/DTD/svg11.dtd">
<!-- Generated by graphviz version 15.0.0 (0)
 -->
<!-- Title: LifecycleSync Pages: 1 -->
<svg width="341pt" height="394pt"
 viewBox="0.00 0.00 341.00 394.00" xmlns="http://www.w3.org/2000/svg" xmlns:xlink="http://www.w3.org/1999/xlink">
<g id="graph0" class="graph" transform="scale(1 1) rotate(0) translate(4 389.65)">
<title>LifecycleSync</title>
<g id="clust1" class="cluster">
<title>cluster_private</title>
<path fill="#e3f2fd" stroke="#1565c0" d="M20,-113.35C20,-113.35 313,-113.35 313,-113.35 319,-113.35 325,-119.35 325,-125.35 325,-125.35 325,-184.45 325,-184.45 325,-190.45 319,-196.45 313,-196.45 313,-196.45 20,-196.45 20,-196.45 14,-196.45 8,-190.45 8,-184.45 8,-184.45 8,-125.35 8,-125.35 8,-119.35 14,-113.35 20,-113.35"/>
<text xml:space="preserve" text-anchor="middle" x="166.5" y="-183.9" font-family="sans-serif" font-size="9.00" fill="#0d47a1">私有副本（运行时使用）</text>
</g>
<!-- dev -->
<g id="node1" class="node">
<title>dev</title>
<path fill="#c8e6c9" stroke="#43a047" d="M254.17,-385.65C254.17,-385.65 93.83,-385.65 93.83,-385.65 87.83,-385.65 81.83,-379.65 81.83,-373.65 81.83,-373.65 81.83,-338.55 81.83,-338.55 81.83,-332.55 87.83,-326.55 93.83,-326.55 93.83,-326.55 254.17,-326.55 254.17,-326.55 260.17,-326.55 266.17,-332.55 266.17,-338.55 266.17,-338.55 266.17,-373.65 266.17,-373.65 266.17,-379.65 260.17,-385.65 254.17,-385.65"/>
<text xml:space="preserve" text-anchor="middle" x="174" y="-366.3" font-family="sans-serif" font-size="9.00">开发副本</text>
<text xml:space="preserve" text-anchor="middle" x="174" y="-352.8" font-family="sans-serif" font-size="9.00">registry.yaml + skills/*/SKILL.md</text>
<text xml:space="preserve" text-anchor="middle" x="174" y="-342.3" font-family="sans-serif" font-size="9.00">（无 LIFECYCLE 标记，可提交 GitHub）</text>
</g>
<!-- sync -->
<g id="node2" class="node">
<title>sync</title>
<path fill="#fff3e0" stroke="#e65100" d="M228.3,-280.8C228.3,-280.8 119.7,-280.8 119.7,-280.8 113.7,-280.8 107.7,-274.8 107.7,-268.8 107.7,-268.8 107.7,-247.2 107.7,-247.2 107.7,-241.2 113.7,-235.2 119.7,-235.2 119.7,-235.2 228.3,-235.2 228.3,-235.2 234.3,-235.2 240.3,-241.2 240.3,-247.2 240.3,-247.2 240.3,-268.8 240.3,-268.8 240.3,-274.8 234.3,-280.8 228.3,-280.8"/>
<text xml:space="preserve" text-anchor="middle" x="174" y="-261.45" font-family="sans-serif" font-size="9.00">lifecycle&#45;sync.py</text>
<text xml:space="preserve" text-anchor="middle" x="174" y="-250.95" font-family="sans-serif" font-size="9.00">读取 registry → 注入标记</text>
</g>
<!-- dev&#45;&gt;sync -->
<g id="edge1" class="edge">
<title>dev&#45;&gt;sync</title>
<path fill="none" stroke="black" d="M174,-326.13C174,-326.13 174,-292.76 174,-292.76"/>
<polygon fill="black" stroke="black" points="177.5,-292.76 174,-282.76 170.5,-292.76 177.5,-292.76"/>
<text xml:space="preserve" text-anchor="middle" x="191.25" y="-300.95" font-family="Times,serif" font-size="8.00"> git push</text>
</g>
<!-- private_skills -->
<g id="node3" class="node">
<title>private_skills</title>
<path fill="#bbdefb" stroke="black" d="M156.42,-166.95C156.42,-166.95 27.58,-166.95 27.58,-166.95 21.58,-166.95 15.58,-160.95 15.58,-154.95 15.58,-154.95 15.58,-133.35 15.58,-133.35 15.58,-127.35 21.58,-121.35 27.58,-121.35 27.58,-121.35 156.42,-121.35 156.42,-121.35 162.42,-121.35 168.42,-127.35 168.42,-133.35 168.42,-133.35 168.42,-154.95 168.42,-154.95 168.42,-160.95 162.42,-166.95 156.42,-166.95"/>
<text xml:space="preserve" text-anchor="middle" x="92" y="-147.6" font-family="sans-serif" font-size="9.00">skills/*/SKILL.md</text>
<text xml:space="preserve" text-anchor="middle" x="92" y="-137.1" font-family="sans-serif" font-size="9.00">（含 LIFECYCLE_HOOKS 标记）</text>
</g>
<!-- sync&#45;&gt;private_skills -->
<g id="edge2" class="edge">
<title>sync&#45;&gt;private_skills</title>
<path fill="none" stroke="black" d="M138.06,-234.96C138.06,-234.96 138.06,-178.67 138.06,-178.67"/>
<polygon fill="black" stroke="black" points="141.56,-178.67 138.06,-168.67 134.56,-178.67 141.56,-178.67"/>
<text xml:space="preserve" text-anchor="middle" x="157.12" y="-209.6" font-family="Times,serif" font-size="8.00"> 注入 LIFECYCLE_HOOKS</text>
</g>
<!-- plugins -->
<g id="node4" class="node">
<title>plugins</title>
<path fill="#bbdefb" stroke="black" d="M304.93,-165.45C304.93,-165.45 209.08,-165.45 209.08,-165.45 203.08,-165.45 197.08,-159.45 197.08,-153.45 197.08,-153.45 197.08,-134.85 197.08,-134.85 197.08,-128.85 203.08,-122.85 209.08,-122.85 209.08,-122.85 304.93,-122.85 304.93,-122.85 310.93,-122.85 316.93,-128.85 316.93,-134.85 316.93,-134.85 316.93,-153.45 316.93,-153.45 316.93,-159.45 310.93,-165.45 304.93,-165.45"/>
<text xml:space="preserve" text-anchor="middle" x="257" y="-146.1" font-family="sans-serif" font-size="9.00">plugins/context&#45;anchor/</text>
<text xml:space="preserve" text-anchor="middle" x="257" y="-135.6" font-family="sans-serif" font-size="9.00">hooks.py | state.py</text>
</g>
<!-- sync&#45;&gt;plugins -->
<g id="edge3" class="edge">
<title>sync&#45;&gt;plugins</title>
<path fill="none" stroke="black" stroke-dasharray="5,2" d="M218.69,-234.96C218.69,-234.96 218.69,-177.13 218.69,-177.13"/>
<polygon fill="black" stroke="black" points="222.19,-177.13 218.69,-167.13 215.19,-177.13 222.19,-177.13"/>
<text xml:space="preserve" text-anchor="middle" x="273.25" y="-209.6" font-family="Times,serif" font-size="8.00"> 部署 plugin</text>
</g>
<!-- hermes -->
<g id="node5" class="node">
<title>hermes</title>
<path fill="#f3e5f5" stroke="#8b5cf6" d="M251.55,-75.6C251.55,-75.6 96.45,-75.6 96.45,-75.6 90.45,-75.6 84.45,-69.6 84.45,-63.6 84.45,-63.6 84.45,-12 84.45,-12 84.45,-6 90.45,0 96.45,0 96.45,0 251.55,0 251.55,0 257.55,0 263.55,-6 263.55,-12 263.55,-12 263.55,-63.6 263.55,-63.6 263.55,-69.6 257.55,-75.6 251.55,-75.6"/>
<text xml:space="preserve" text-anchor="middle" x="174" y="-56.25" font-family="sans-serif" font-size="9.00">Hermes 运行时</text>
<text xml:space="preserve" text-anchor="middle" x="174" y="-42.75" font-family="sans-serif" font-size="9.00">~/.hermes/ → symlink → 私有副本</text>
<text xml:space="preserve" text-anchor="middle" x="174" y="-29.25" font-family="sans-serif" font-size="9.00">技能按需加载</text>
<text xml:space="preserve" text-anchor="middle" x="174" y="-15.75" font-family="sans-serif" font-size="9.00">Plugin hook 自动执行</text>
</g>
<!-- private_skills&#45;&gt;hermes -->
<g id="edge4" class="edge">
<title>private_skills&#45;&gt;hermes</title>
<path fill="none" stroke="black" d="M126.44,-121.07C126.44,-121.07 126.44,-87.4 126.44,-87.4"/>
<polygon fill="black" stroke="black" points="129.94,-87.4 126.44,-77.4 122.94,-87.4 129.94,-87.4"/>
<text xml:space="preserve" text-anchor="middle" x="157.12" y="-95.75" font-family="Times,serif" font-size="8.00"> symlink</text>
</g>
<!-- plugins&#45;&gt;hermes -->
<g id="edge5" class="edge">
<title>plugins&#45;&gt;hermes</title>
<path fill="none" stroke="black" d="M230.31,-122.37C230.31,-122.37 230.31,-87.41 230.31,-87.41"/>
<polygon fill="black" stroke="black" points="233.81,-87.41 230.31,-77.41 226.81,-87.42 233.81,-87.41"/>
<text xml:space="preserve" text-anchor="middle" x="266.88" y="-95.75" font-family="Times,serif" font-size="8.00"> symlink + enable</text>
</g>
</g>
</svg>
