<?xml version="1.0" encoding="UTF-8" standalone="no"?>
<!DOCTYPE svg PUBLIC "-//W3C//DTD SVG 1.1//EN"
 "http://www.w3.org/Graphics/SVG/1.1/DTD/svg11.dtd">
<!-- Generated by graphviz version 15.0.0 (0)
 -->
<!-- Title: LicycleSyncHooks Pages: 1 -->
<svg width="359pt" height="240pt"
 viewBox="0.00 0.00 359.00 240.00" xmlns="http://www.w3.org/2000/svg" xmlns:xlink="http://www.w3.org/1999/xlink">
<g id="graph0" class="graph" transform="scale(1 1) rotate(0) translate(4 236.2)">
<title>LicycleSyncHooks</title>
<!-- registry -->
<g id="node1" class="node">
<title>registry</title>
<path fill="#fff8e1" stroke="#f9a825" d="M238.35,-232.2C238.35,-232.2 111.75,-232.2 111.75,-232.2 105.75,-232.2 99.75,-226.2 99.75,-220.2 99.75,-220.2 99.75,-195.6 99.75,-195.6 99.75,-189.6 105.75,-183.6 111.75,-183.6 111.75,-183.6 238.35,-183.6 238.35,-183.6 244.35,-183.6 250.35,-189.6 250.35,-195.6 250.35,-195.6 250.35,-220.2 250.35,-220.2 250.35,-226.2 244.35,-232.2 238.35,-232.2"/>
<text xml:space="preserve" text-anchor="middle" x="175.05" y="-211.9" font-family="sans-serif" font-size="10.00">registry.yaml</text>
<text xml:space="preserve" text-anchor="middle" x="175.05" y="-199.9" font-family="sans-serif" font-size="10.00">（组件声明 lifecycle hooks）</text>
</g>
<!-- sync -->
<g id="node2" class="node">
<title>sync</title>
<path fill="#fff3e0" stroke="#e65100" stroke-width="2" d="M225.6,-140.1C225.6,-140.1 124.5,-140.1 124.5,-140.1 118.5,-140.1 112.5,-134.1 112.5,-128.1 112.5,-128.1 112.5,-116.1 112.5,-116.1 112.5,-110.1 118.5,-104.1 124.5,-104.1 124.5,-104.1 225.6,-104.1 225.6,-104.1 231.6,-104.1 237.6,-110.1 237.6,-116.1 237.6,-116.1 237.6,-128.1 237.6,-128.1 237.6,-134.1 231.6,-140.1 225.6,-140.1"/>
<text xml:space="preserve" text-anchor="middle" x="175.05" y="-118.6" font-family="sans-serif" font-size="10.00">astra&#45;lifecycle&#45;sync.py</text>
</g>
<!-- registry&#45;&gt;sync -->
<g id="edge1" class="edge">
<title>registry&#45;&gt;sync</title>
<path fill="none" stroke="black" d="M175.05,-183.54C175.05,-183.54 175.05,-152.58 175.05,-152.58"/>
<polygon fill="black" stroke="black" points="178.55,-152.58 175.05,-142.58 171.55,-152.58 178.55,-152.58"/>
<text xml:space="preserve" text-anchor="middle" x="185.17" y="-160.05" font-family="Times,serif" font-size="9.00"> 读取</text>
</g>
<!-- closure -->
<g id="node3" class="node">
<title>closure</title>
<path fill="#e8f5e9" stroke="#43a047" d="M152.1,-60.6C152.1,-60.6 12,-60.6 12,-60.6 6,-60.6 0,-54.6 0,-48.6 0,-48.6 0,-12 0,-12 0,-6 6,0 12,0 12,0 152.1,0 152.1,0 158.1,0 164.1,-6 164.1,-12 164.1,-12 164.1,-48.6 164.1,-48.6 164.1,-54.6 158.1,-60.6 152.1,-60.6"/>
<text xml:space="preserve" text-anchor="middle" x="82.05" y="-40.3" font-family="sans-serif" font-size="10.00">work&#45;closure&#45;check</text>
<text xml:space="preserve" text-anchor="middle" x="82.05" y="-28.3" font-family="sans-serif" font-size="10.00">/SKILL.md</text>
<text xml:space="preserve" text-anchor="middle" x="82.05" y="-16.3" font-family="sans-serif" font-size="10.00">（含 LIFECYCLE_HOOKS 标记）</text>
</g>
<!-- sync&#45;&gt;closure -->
<g id="edge2" class="edge">
<title>sync&#45;&gt;closure</title>
<path fill="none" stroke="black" d="M138.3,-103.52C138.3,-103.52 138.3,-72.29 138.3,-72.29"/>
<polygon fill="black" stroke="black" points="141.8,-72.29 138.3,-62.29 134.8,-72.29 141.8,-72.29"/>
<text xml:space="preserve" text-anchor="middle" x="124.8" y="-80.55" font-family="Times,serif" font-size="9.00"> 注入 closure hooks</text>
</g>
<!-- deploy -->
<g id="node4" class="node">
<title>deploy</title>
<path fill="#e8f5e9" stroke="#43a047" d="M338.1,-60.6C338.1,-60.6 198,-60.6 198,-60.6 192,-60.6 186,-54.6 186,-48.6 186,-48.6 186,-12 186,-12 186,-6 192,0 198,0 198,0 338.1,0 338.1,0 344.1,0 350.1,-6 350.1,-12 350.1,-12 350.1,-48.6 350.1,-48.6 350.1,-54.6 344.1,-60.6 338.1,-60.6"/>
<text xml:space="preserve" text-anchor="middle" x="268.05" y="-40.3" font-family="sans-serif" font-size="10.00">deploy&#45;register</text>
<text xml:space="preserve" text-anchor="middle" x="268.05" y="-28.3" font-family="sans-serif" font-size="10.00">/SKILL.md</text>
<text xml:space="preserve" text-anchor="middle" x="268.05" y="-16.3" font-family="sans-serif" font-size="10.00">（含 LIFECYCLE_HOOKS 标记）</text>
</g>
<!-- sync&#45;&gt;deploy -->
<g id="edge3" class="edge">
<title>sync&#45;&gt;deploy</title>
<path fill="none" stroke="black" d="M211.8,-103.52C211.8,-103.52 211.8,-72.29 211.8,-72.29"/>
<polygon fill="black" stroke="black" points="215.3,-72.29 211.8,-62.29 208.3,-72.29 215.3,-72.29"/>
<text xml:space="preserve" text-anchor="middle" x="309.3" y="-80.55" font-family="Times,serif" font-size="9.00"> 注入 deploy hooks</text>
</g>
</g>
</svg>
