<?xml version="1.0" encoding="UTF-8" standalone="no"?>
<!DOCTYPE svg PUBLIC "-//W3C//DTD SVG 1.1//EN"
 "http://www.w3.org/Graphics/SVG/1.1/DTD/svg11.dtd">
<!-- Generated by graphviz version 15.0.0 (0)
 -->
<!-- Title: PluginStructure Pages: 1 -->
<svg width="216pt" height="314pt"
 viewBox="0.00 0.00 216.00 314.00" xmlns="http://www.w3.org/2000/svg" xmlns:xlink="http://www.w3.org/1999/xlink">
<g id="graph0" class="graph" transform="scale(1 1) rotate(0) translate(4 310)">
<title>PluginStructure</title>
<g id="clust1" class="cluster">
<title>cluster_plugin</title>
<path fill="#e3f2fd" stroke="#1565c0" d="M31.62,-8C31.62,-8 177.38,-8 177.38,-8 183.38,-8 189.38,-14 189.38,-20 189.38,-20 189.38,-166 189.38,-166 189.38,-172 183.38,-178 177.38,-178 177.38,-178 31.62,-178 31.62,-178 25.62,-178 19.62,-172 19.62,-166 19.62,-166 19.62,-20 19.62,-20 19.62,-14 25.62,-8 31.62,-8"/>
<text xml:space="preserve" text-anchor="middle" x="104.5" y="-162.6" font-family="sans-serif" font-size="12.00" fill="#0d47a1">~/.hermes/plugins/&lt;name&gt;/</text>
</g>
<g id="clust2" class="cluster">
<title>cluster_hooks</title>
<path fill="#fff3e0" stroke="#e65100" d="M20,-186C20,-186 188,-186 188,-186 194,-186 200,-192 200,-198 200,-198 200,-286 200,-286 200,-292 194,-298 188,-298 188,-298 20,-298 20,-298 14,-298 8,-292 8,-286 8,-286 8,-198 8,-198 8,-192 14,-186 20,-186"/>
<text xml:space="preserve" text-anchor="middle" x="104" y="-282.6" font-family="sans-serif" font-size="12.00" fill="#bf360c">Hermes 生命周期钩子</text>
</g>
<!-- files -->
<g id="node1" class="node">
<title>files</title>
<path fill="none" stroke="none" d="M159,-148C159,-148 49,-148 49,-148 43,-148 37,-142 37,-136 37,-136 37,-28 37,-28 37,-22 43,-16 49,-16 49,-16 159,-16 159,-16 165,-16 171,-22 171,-28 171,-28 171,-136 171,-136 171,-142 165,-148 159,-148"/>
<text xml:space="preserve" text-anchor="start" x="42" y="-133" font-family="sans-serif" font-weight="bold" font-size="10.00">plugin.yaml</text>
<text xml:space="preserve" text-anchor="start" x="103" y="-131" font-family="sans-serif" font-size="10.00"> &#160;清单文件</text>
<text xml:space="preserve" text-anchor="start" x="42" y="-112.5" font-family="sans-serif" font-weight="bold" font-size="10.00">__init__.py</text>
<text xml:space="preserve" text-anchor="start" x="103" y="-112" font-family="sans-serif" font-size="10.00"> &#160;register(ctx)</text>
<text xml:space="preserve" text-anchor="start" x="42" y="-92" font-family="sans-serif" font-weight="bold" font-size="10.00">hooks.py</text>
<text xml:space="preserve" text-anchor="start" x="103" y="-90" font-family="sans-serif" font-size="10.00"> &#160;生命周期钩子</text>
<text xml:space="preserve" text-anchor="start" x="42" y="-70" font-family="sans-serif" font-weight="bold" font-size="10.00">schemas.py</text>
<text xml:space="preserve" text-anchor="start" x="103" y="-68" font-family="sans-serif" font-size="10.00"> &#160;工具 schema</text>
<text xml:space="preserve" text-anchor="start" x="42" y="-48" font-family="sans-serif" font-weight="bold" font-size="10.00">tools.py</text>
<text xml:space="preserve" text-anchor="start" x="103" y="-46" font-family="sans-serif" font-size="10.00"> &#160;工具实现</text>
<text xml:space="preserve" text-anchor="start" x="42" y="-26" font-family="sans-serif" font-weight="bold" font-size="10.00">state.py</text>
<text xml:space="preserve" text-anchor="start" x="103" y="-24" font-family="sans-serif" font-size="10.00"> &#160;状态持久化</text>
</g>
<!-- hooks -->
<g id="node2" class="node">
<title>hooks</title>
<path fill="none" stroke="none" d="M180,-263.5C180,-263.5 28,-263.5 28,-263.5 22,-263.5 16,-257.5 16,-251.5 16,-251.5 16,-206.5 16,-206.5 16,-200.5 22,-194.5 28,-194.5 28,-194.5 180,-194.5 180,-194.5 186,-194.5 192,-200.5 192,-206.5 192,-206.5 192,-251.5 192,-251.5 192,-257.5 186,-263.5 180,-263.5"/>
<text xml:space="preserve" text-anchor="start" x="21" y="-248.5" font-family="sans-serif" font-weight="bold" font-size="10.00">pre_llm_call</text>
<text xml:space="preserve" text-anchor="start" x="94.75" y="-246.5" font-family="sans-serif" font-size="10.00"> &#160;修改系统提示词</text>
<text xml:space="preserve" text-anchor="start" x="21" y="-226.5" font-family="sans-serif" font-weight="bold" font-size="10.00">post_tool_call</text>
<text xml:space="preserve" text-anchor="start" x="94.75" y="-224.5" font-family="sans-serif" font-size="10.00"> &#160;记录 SSH / 更新状态</text>
<text xml:space="preserve" text-anchor="start" x="21" y="-204.5" font-family="sans-serif" font-weight="bold" font-size="10.00">pre_tool_call</text>
<text xml:space="preserve" text-anchor="start" x="94.75" y="-202.5" font-family="sans-serif" font-size="10.00"> &#160;阻断违反原则的操作</text>
</g>
</g>
</svg>
