<?xml version="1.0" encoding="UTF-8" standalone="no"?>
<!DOCTYPE svg PUBLIC "-//W3C//DTD SVG 1.1//EN"
 "http://www.w3.org/Graphics/SVG/1.1/DTD/svg11.dtd">
<!-- Generated by graphviz version 15.0.0 (0)
 -->
<!-- Title: PrincipleFlow Pages: 1 -->
<svg width="221pt" height="486pt"
 viewBox="0.00 0.00 221.00 486.00" xmlns="http://www.w3.org/2000/svg" xmlns:xlink="http://www.w3.org/1999/xlink">
<g id="graph0" class="graph" transform="scale(1 1) rotate(0) translate(4 481.5)">
<title>PrincipleFlow</title>
<!-- soul -->
<g id="node1" class="node">
<title>soul</title>
<path fill="#ede5ff" stroke="none" d="M152.5,-477.5C152.5,-477.5 60.75,-477.5 60.75,-477.5 54.75,-477.5 48.75,-471.5 48.75,-465.5 48.75,-465.5 48.75,-336 48.75,-336 48.75,-330 54.75,-324 60.75,-324 60.75,-324 152.5,-324 152.5,-324 158.5,-324 164.5,-330 164.5,-336 164.5,-336 164.5,-465.5 164.5,-465.5 164.5,-471.5 158.5,-477.5 152.5,-477.5"/>
<text xml:space="preserve" text-anchor="start" x="53.75" y="-463.05" font-family="sans-serif" font-weight="bold" font-size="11.00">SOUL.md（宪法层）</text>
<text xml:space="preserve" text-anchor="start" x="53.75" y="-434.4" font-family="sans-serif" font-size="11.00">· #0 诚实优先</text>
<text xml:space="preserve" text-anchor="start" x="53.75" y="-409.15" font-family="sans-serif" font-size="11.00">· #1 研究先行</text>
<text xml:space="preserve" text-anchor="start" x="53.75" y="-383.9" font-family="sans-serif" font-size="11.00">· #2 理解权衡</text>
<text xml:space="preserve" text-anchor="start" x="53.75" y="-358.65" font-family="sans-serif" font-size="11.00">· #3 步骤透明</text>
<text xml:space="preserve" text-anchor="start" x="53.75" y="-333.4" font-family="sans-serif" font-size="11.00">· #4 先保全再改</text>
</g>
<!-- plugin -->
<g id="node2" class="node">
<title>plugin</title>
<path fill="#dee5f2" stroke="none" d="M199.38,-288C199.38,-288 13.88,-288 13.88,-288 7.88,-288 1.88,-282 1.88,-276 1.88,-276 1.88,-201.5 1.88,-201.5 1.88,-195.5 7.88,-189.5 13.88,-189.5 13.88,-189.5 199.38,-189.5 199.38,-189.5 205.38,-189.5 211.38,-195.5 211.38,-201.5 211.38,-201.5 211.38,-276 211.38,-276 211.38,-282 205.38,-288 199.38,-288"/>
<text xml:space="preserve" text-anchor="start" x="48.12" y="-273.55" font-family="sans-serif" font-weight="bold" font-size="11.00">Plugin 层（HOOK 层）</text>
<text xml:space="preserve" text-anchor="start" x="6.88" y="-248" font-family="sans-serif" font-size="11.00">· context&#45;anchor — [AGENT CONTEXT]</text>
<text xml:space="preserve" text-anchor="start" x="6.88" y="-223.5" font-family="sans-serif" font-size="11.00">· discipline — 阶段状态机</text>
<text xml:space="preserve" text-anchor="start" x="6.88" y="-198.25" font-family="sans-serif" font-size="11.00">· lifecycle&#45;sync — 注入生成块</text>
</g>
<!-- soul&#45;&gt;plugin -->
<g id="edge1" class="edge">
<title>soul&#45;&gt;plugin</title>
<path fill="none" stroke="#8b5cf6" d="M106.62,-324.02C106.62,-311.75 106.62,-299.35 106.62,-287.95"/>
</g>
<!-- skill -->
<g id="node3" class="node">
<title>skill</title>
<path fill="#dee5f2" stroke="none" d="M201.25,-153.5C201.25,-153.5 12,-153.5 12,-153.5 6,-153.5 0,-147.5 0,-141.5 0,-141.5 0,-12 0,-12 0,-6 6,0 12,0 12,0 201.25,0 201.25,0 207.25,0 213.25,-6 213.25,-12 213.25,-12 213.25,-141.5 213.25,-141.5 213.25,-147.5 207.25,-153.5 201.25,-153.5"/>
<text xml:space="preserve" text-anchor="start" x="54.88" y="-139.05" font-family="sans-serif" font-weight="bold" font-size="11.00">Skill 体系（执行层）</text>
<text xml:space="preserve" text-anchor="start" x="5" y="-109.75" font-family="sans-serif" font-size="11.00">· execution&#45;framework — 任务分类路由</text>
<text xml:space="preserve" text-anchor="start" x="5" y="-84.5" font-family="sans-serif" font-size="11.00">· pre&#45;action&#45;research — #1 研究先行</text>
<text xml:space="preserve" text-anchor="start" x="5" y="-59.25" font-family="sans-serif" font-size="11.00">· change&#45;safeguard — #4 先保全再改</text>
<text xml:space="preserve" text-anchor="start" x="5" y="-34" font-family="sans-serif" font-size="11.00">· deploy&#45;register — 部署登记</text>
<text xml:space="preserve" text-anchor="start" x="5" y="-8.75" font-family="sans-serif" font-size="11.00">· work&#45;closure&#45;check — 收尾闭环</text>
</g>
<!-- plugin&#45;&gt;skill -->
<g id="edge2" class="edge">
<title>plugin&#45;&gt;skill</title>
<path fill="none" stroke="#3465a4" d="M106.62,-189.71C106.62,-178.25 106.62,-165.78 106.62,-153.44"/>
</g>
</g>
</svg>
