<?xml version="1.0" encoding="UTF-8" standalone="no"?>
<!DOCTYPE svg PUBLIC "-//W3C//DTD SVG 1.1//EN"
 "http://www.w3.org/Graphics/SVG/1.1/DTD/svg11.dtd">
<!-- Generated by graphviz version 15.0.0 (0)
 -->
<!-- Title: RAGFlow Pages: 1 -->
<svg width="176pt" height="588pt"
 viewBox="0.00 0.00 176.00 588.00" xmlns="http://www.w3.org/2000/svg" xmlns:xlink="http://www.w3.org/1999/xlink">
<g id="graph0" class="graph" transform="scale(1 1) rotate(0) translate(4 584)">
<title>RAGFlow</title>
<polygon fill="white" stroke="none" points="-4,4 -4,-584 172,-584 172,4 -4,4"/>
<g id="clust1" class="cluster">
<title>cluster_row1</title>
<polygon fill="#f5f5f5" stroke="#9e9e9e" points="16,-450 16,-531 160,-531 160,-450 16,-450"/>
<text xml:space="preserve" text-anchor="middle" x="88" y="-513.7" font-family="Times,serif" font-size="14.00" fill="#616161">阶段一：查询向量化</text>
</g>
<g id="clust2" class="cluster">
<title>cluster_row2</title>
<polygon fill="#f5f5f5" stroke="#9e9e9e" points="8,-273 8,-442 138,-442 138,-273 8,-273"/>
<text xml:space="preserve" text-anchor="middle" x="73" y="-424.7" font-family="Times,serif" font-size="14.00" fill="#616161">阶段二：向量检索</text>
</g>
<g id="clust3" class="cluster">
<title>cluster_row3</title>
<polygon fill="#f5f5f5" stroke="#9e9e9e" points="22,-8 22,-265 124,-265 124,-8 22,-8"/>
<text xml:space="preserve" text-anchor="middle" x="73" y="-247.7" font-family="Times,serif" font-size="14.00" fill="#616161">阶段三：生成</text>
</g>
<!-- embed -->
<g id="node1" class="node">
<title>embed</title>
<path fill="#e3f2fd" stroke="#1565c0" d="M103.12,-494C103.12,-494 42.88,-494 42.88,-494 36.88,-494 30.88,-488 30.88,-482 30.88,-482 30.88,-470 30.88,-470 30.88,-464 36.88,-458 42.88,-458 42.88,-458 103.12,-458 103.12,-458 109.12,-458 115.12,-464 115.12,-470 115.12,-470 115.12,-482 115.12,-482 115.12,-488 109.12,-494 103.12,-494"/>
<text xml:space="preserve" text-anchor="middle" x="73" y="-480" font-family="sans-serif" font-size="10.00">向量化查询文本</text>
<text xml:space="preserve" text-anchor="middle" x="73" y="-465" font-family="sans-serif" font-size="10.00">(embedding)</text>
</g>
<!-- vecsearch -->
<g id="node2" class="node">
<title>vecsearch</title>
<path fill="#e3f2fd" stroke="#1565c0" d="M103.12,-405C103.12,-405 42.88,-405 42.88,-405 36.88,-405 30.88,-399 30.88,-393 30.88,-393 30.88,-381 30.88,-381 30.88,-375 36.88,-369 42.88,-369 42.88,-369 103.12,-369 103.12,-369 109.12,-369 115.12,-375 115.12,-381 115.12,-381 115.12,-393 115.12,-393 115.12,-399 109.12,-405 103.12,-405"/>
<text xml:space="preserve" text-anchor="middle" x="73" y="-391" font-family="sans-serif" font-size="10.00">向量相似度搜索</text>
<text xml:space="preserve" text-anchor="middle" x="73" y="-376" font-family="sans-serif" font-size="10.00">(vector DB)</text>
</g>
<!-- embed&#45;&gt;vecsearch -->
<g id="edge5" class="edge">
<title>embed&#45;&gt;vecsearch</title>
<path fill="none" stroke="black" d="M73,-457.81C73,-446.09 73,-430.29 73,-416.68"/>
<polygon fill="black" stroke="black" points="76.5,-416.96 73,-406.96 69.5,-416.96 76.5,-416.96"/>
</g>
<!-- topk -->
<g id="node3" class="node">
<title>topk</title>
<path fill="#e3f2fd" stroke="#1565c0" d="M93.38,-319C93.38,-319 52.62,-319 52.62,-319 46.62,-319 40.62,-313 40.62,-307 40.62,-307 40.62,-293 40.62,-293 40.62,-287 46.62,-281 52.62,-281 52.62,-281 93.38,-281 93.38,-281 99.38,-281 105.38,-287 105.38,-293 105.38,-293 105.38,-307 105.38,-307 105.38,-313 99.38,-319 93.38,-319"/>
<text xml:space="preserve" text-anchor="middle" x="73" y="-305.5" font-family="sans-serif" font-size="10.00">检索 Top&#45;K</text>
<text xml:space="preserve" text-anchor="middle" x="73" y="-290.5" font-family="sans-serif" font-size="10.00">相关文档块</text>
</g>
<!-- vecsearch&#45;&gt;topk -->
<g id="edge1" class="edge">
<title>vecsearch&#45;&gt;topk</title>
<path fill="none" stroke="black" d="M73,-368.8C73,-357.92 73,-343.56 73,-330.85"/>
<polygon fill="black" stroke="black" points="76.5,-330.87 73,-320.87 69.5,-330.87 76.5,-330.87"/>
</g>
<!-- combine -->
<g id="node4" class="node">
<title>combine</title>
<path fill="#e3f2fd" stroke="#1565c0" d="M103.12,-228C103.12,-228 42.88,-228 42.88,-228 36.88,-228 30.88,-222 30.88,-216 30.88,-216 30.88,-202 30.88,-202 30.88,-196 36.88,-190 42.88,-190 42.88,-190 103.12,-190 103.12,-190 109.12,-190 115.12,-196 115.12,-202 115.12,-202 115.12,-216 115.12,-216 115.12,-222 109.12,-228 103.12,-228"/>
<text xml:space="preserve" text-anchor="middle" x="73" y="-214.5" font-family="sans-serif" font-size="10.00">查询 + 检索结果</text>
<text xml:space="preserve" text-anchor="middle" x="73" y="-199.5" font-family="sans-serif" font-size="10.00">组合输入</text>
</g>
<!-- topk&#45;&gt;combine -->
<g id="edge6" class="edge">
<title>topk&#45;&gt;combine</title>
<path fill="none" stroke="black" d="M73,-280.56C73,-268.75 73,-253.15 73,-239.62"/>
<polygon fill="black" stroke="black" points="76.5,-239.93 73,-229.93 69.5,-239.93 76.5,-239.93"/>
</g>
<!-- prompt -->
<g id="node5" class="node">
<title>prompt</title>
<path fill="#e3f2fd" stroke="#1565c0" d="M93.38,-140C93.38,-140 52.62,-140 52.62,-140 46.62,-140 40.62,-134 40.62,-128 40.62,-128 40.62,-116 40.62,-116 40.62,-110 46.62,-104 52.62,-104 52.62,-104 93.38,-104 93.38,-104 99.38,-104 105.38,-110 105.38,-116 105.38,-116 105.38,-128 105.38,-128 105.38,-134 99.38,-140 93.38,-140"/>
<text xml:space="preserve" text-anchor="middle" x="73" y="-126" font-family="sans-serif" font-size="10.00">注入上下文</text>
<text xml:space="preserve" text-anchor="middle" x="73" y="-111" font-family="sans-serif" font-size="10.00">(prompt)</text>
</g>
<!-- combine&#45;&gt;prompt -->
<g id="edge2" class="edge">
<title>combine&#45;&gt;prompt</title>
<path fill="none" stroke="black" d="M73,-189.56C73,-178.46 73,-164.09 73,-151.55"/>
<polygon fill="black" stroke="black" points="76.5,-151.76 73,-141.76 69.5,-151.76 76.5,-151.76"/>
</g>
<!-- llm -->
<g id="node6" class="node">
<title>llm</title>
<path fill="#e3f2fd" stroke="#1565c0" d="M89.62,-54C89.62,-54 56.38,-54 56.38,-54 50.38,-54 44.38,-48 44.38,-42 44.38,-42 44.38,-28 44.38,-28 44.38,-22 50.38,-16 56.38,-16 56.38,-16 89.62,-16 89.62,-16 95.62,-16 101.62,-22 101.62,-28 101.62,-28 101.62,-42 101.62,-42 101.62,-48 95.62,-54 89.62,-54"/>
<text xml:space="preserve" text-anchor="middle" x="73" y="-40.5" font-family="sans-serif" font-size="10.00">LLM 生成</text>
<text xml:space="preserve" text-anchor="middle" x="73" y="-25.5" font-family="sans-serif" font-size="10.00">最终回答</text>
</g>
<!-- prompt&#45;&gt;llm -->
<g id="edge3" class="edge">
<title>prompt&#45;&gt;llm</title>
<path fill="none" stroke="black" d="M73,-103.8C73,-92.92 73,-78.56 73,-65.85"/>
<polygon fill="black" stroke="black" points="76.5,-65.87 73,-55.87 69.5,-65.87 76.5,-65.87"/>
</g>
<!-- query -->
<g id="node7" class="node">
<title>query</title>
<ellipse fill="#fff3e0" stroke="#e65100" cx="73" cy="-562" rx="35.75" ry="18"/>
<text xml:space="preserve" text-anchor="middle" x="73" y="-560" font-family="sans-serif" font-size="10.00">用户查询</text>
</g>
<!-- query&#45;&gt;embed -->
<g id="edge4" class="edge">
<title>query&#45;&gt;embed</title>
<path fill="none" stroke="black" d="M73,-543.6C73,-532.67 73,-518.32 73,-505.73"/>
<polygon fill="black" stroke="black" points="76.5,-505.9 73,-495.9 69.5,-505.9 76.5,-505.9"/>
</g>
</g>
</svg>
