<?xml version="1.0" encoding="UTF-8" standalone="no"?>
<!DOCTYPE svg PUBLIC "-//W3C//DTD SVG 1.1//EN"
 "http://www.w3.org/Graphics/SVG/1.1/DTD/svg11.dtd">
<!-- Generated by graphviz version 15.0.0 (0)
 -->
<!-- Title: RAGEvolution Pages: 1 -->
<svg width="492pt" height="152pt"
 viewBox="0.00 0.00 492.00 152.00" xmlns="http://www.w3.org/2000/svg" xmlns:xlink="http://www.w3.org/1999/xlink">
<g id="graph0" class="graph" transform="scale(1 1) rotate(0) translate(4 147.75)">
<title>RAGEvolution</title>
<polygon fill="white" stroke="none" points="-4,4 -4,-147.75 487.75,-147.75 487.75,4 -4,4"/>
<!-- naive -->
<g id="node1" class="node">
<title>naive</title>
<path fill="#e3f2fd" stroke="#1565c0" d="M268.5,-143.75C268.5,-143.75 177.5,-143.75 177.5,-143.75 171.5,-143.75 165.5,-137.75 165.5,-131.75 165.5,-131.75 165.5,-119.75 165.5,-119.75 165.5,-113.75 171.5,-107.75 177.5,-107.75 177.5,-107.75 268.5,-107.75 268.5,-107.75 274.5,-107.75 280.5,-113.75 280.5,-119.75 280.5,-119.75 280.5,-131.75 280.5,-131.75 280.5,-137.75 274.5,-143.75 268.5,-143.75"/>
<text xml:space="preserve" text-anchor="middle" x="223" y="-129.2" font-family="sans-serif" font-size="9.00">Naive RAG (2023)</text>
<text xml:space="preserve" text-anchor="middle" x="223" y="-118.7" font-family="sans-serif" font-size="9.00">单一向量检索，简单问答</text>
</g>
<!-- graphrag -->
<g id="node2" class="node">
<title>graphrag</title>
<path fill="#fff3e0" stroke="#e65100" d="M118,-52.25C118,-52.25 12,-52.25 12,-52.25 6,-52.25 0,-46.25 0,-40.25 0,-40.25 0,-18.75 0,-18.75 0,-12.75 6,-6.75 12,-6.75 12,-6.75 118,-6.75 118,-6.75 124,-6.75 130,-12.75 130,-18.75 130,-18.75 130,-40.25 130,-40.25 130,-46.25 124,-52.25 118,-52.25"/>
<text xml:space="preserve" text-anchor="middle" x="65" y="-39.7" font-family="sans-serif" font-size="9.00">GraphRAG (Microsoft, 2024)</text>
<text xml:space="preserve" text-anchor="middle" x="65" y="-29.2" font-family="sans-serif" font-size="9.00">实体关系图 + 社区摘要</text>
<text xml:space="preserve" text-anchor="middle" x="65" y="-15.7" font-family="sans-serif" font-size="9.00">全局归纳强，但成本极高</text>
</g>
<!-- naive&#45;&gt;graphrag -->
<g id="edge1" class="edge">
<title>naive&#45;&gt;graphrag</title>
<path fill="none" stroke="black" d="M194.02,-107.46C171.11,-93.8 138.67,-74.44 112.05,-58.57"/>
<polygon fill="black" stroke="black" points="113.84,-55.56 103.46,-53.44 110.26,-61.57 113.84,-55.56"/>
<text xml:space="preserve" text-anchor="middle" x="179.3" y="-82.15" font-family="sans-serif" font-size="8.00">更强推理</text>
</g>
<!-- hippo -->
<g id="node3" class="node">
<title>hippo</title>
<path fill="#f3e5f5" stroke="#7b1fa2" d="M285.75,-52.25C285.75,-52.25 160.25,-52.25 160.25,-52.25 154.25,-52.25 148.25,-46.25 148.25,-40.25 148.25,-40.25 148.25,-18.75 148.25,-18.75 148.25,-12.75 154.25,-6.75 160.25,-6.75 160.25,-6.75 285.75,-6.75 285.75,-6.75 291.75,-6.75 297.75,-12.75 297.75,-18.75 297.75,-18.75 297.75,-40.25 297.75,-40.25 297.75,-46.25 291.75,-52.25 285.75,-52.25"/>
<text xml:space="preserve" text-anchor="middle" x="223" y="-39.7" font-family="sans-serif" font-size="9.00">HippoRAG 2 (OSU/CMU, 2025)</text>
<text xml:space="preserve" text-anchor="middle" x="223" y="-29.2" font-family="sans-serif" font-size="9.00">Personalised PageRank 多跳推理</text>
<text xml:space="preserve" text-anchor="middle" x="223" y="-15.7" font-family="sans-serif" font-size="9.00">依赖 embedding 质量</text>
</g>
<!-- naive&#45;&gt;hippo -->
<g id="edge2" class="edge">
<title>naive&#45;&gt;hippo</title>
<path fill="none" stroke="black" d="M223,-107.46C223,-95.3 223,-78.64 223,-63.93"/>
<polygon fill="black" stroke="black" points="226.5,-64.18 223,-54.18 219.5,-64.18 226.5,-64.18"/>
<text xml:space="preserve" text-anchor="middle" x="239.5" y="-82.15" font-family="sans-serif" font-size="8.00">多跳检索</text>
</g>
<!-- sag -->
<g id="node4" class="node">
<title>sag</title>
<path fill="#e8f5e9" stroke="#2e7d32" d="M471.75,-59C471.75,-59 328.25,-59 328.25,-59 322.25,-59 316.25,-53 316.25,-47 316.25,-47 316.25,-12 316.25,-12 316.25,-6 322.25,0 328.25,0 328.25,0 471.75,0 471.75,0 477.75,0 483.75,-6 483.75,-12 483.75,-12 483.75,-47 483.75,-47 483.75,-53 477.75,-59 471.75,-59"/>
<text xml:space="preserve" text-anchor="middle" x="400" y="-46.45" font-family="sans-serif" font-size="9.00">SAG (Zleap&#45;AI, 2026, arXiv 2606.15971)</text>
<text xml:space="preserve" text-anchor="middle" x="400" y="-35.95" font-family="sans-serif" font-size="9.00">SQL 检索增强生成</text>
<text xml:space="preserve" text-anchor="middle" x="400" y="-22.45" font-family="sans-serif" font-size="9.00">用 SQL JOIN 取代图遍历</text>
<text xml:space="preserve" text-anchor="middle" x="400" y="-8.95" font-family="sans-serif" font-size="9.00">同时解决多跳和增量问题</text>
</g>
<!-- naive&#45;&gt;sag -->
<g id="edge3" class="edge">
<title>naive&#45;&gt;sag</title>
<path fill="none" stroke="black" d="M255.46,-107.46C277.95,-95.49 308.64,-79.15 335.96,-64.6"/>
<polygon fill="black" stroke="black" points="337.33,-67.84 344.51,-60.05 334.04,-61.66 337.33,-67.84"/>
<text xml:space="preserve" text-anchor="middle" x="330.25" y="-82.15" font-family="sans-serif" font-size="8.00">增量+多跳</text>
</g>
</g>
</svg>
