<?xml version="1.0" encoding="UTF-8" standalone="no"?>
<!DOCTYPE svg PUBLIC "-//W3C//DTD SVG 1.1//EN"
 "http://www.w3.org/Graphics/SVG/1.1/DTD/svg11.dtd">
<!-- Generated by graphviz version 15.0.0 (0)
 -->
<!-- Title: SRE Pages: 1 -->
<svg width="274pt" height="225pt"
 viewBox="7.00 7.00 267.00 218.00" xmlns="http://www.w3.org/2000/svg" xmlns:xlink="http://www.w3.org/1999/xlink">
<g id="graph0" class="graph" transform="scale(1 1) rotate(0) translate(11.2 214.2)">
<title>SRE</title>
<polygon fill="white" stroke="none" points="-4,4 -4,-207 256,-207 256,4 -4,4"/>
<!-- daily -->
<g id="node1" class="node">
<title>daily</title>
<path fill="#dee5f2" stroke="#3465a4" d="M240,-203C240,-203 12,-203 12,-203 6,-203 0,-197 0,-191 0,-191 0,-172.5 0,-172.5 0,-166.5 6,-160.5 12,-160.5 12,-160.5 240,-160.5 240,-160.5 246,-160.5 252,-166.5 252,-172.5 252,-172.5 252,-191 252,-191 252,-197 246,-203 240,-203"/>
<text xml:space="preserve" text-anchor="middle" x="126" y="-188.55" font-family="sans-serif" font-size="11.00">📊 cron: 每日巡检</text>
<text xml:space="preserve" text-anchor="middle" x="126" y="-171.3" font-family="sans-serif" font-size="11.00">health&#45;scan.py 遍历所有设备</text>
</g>
<!-- watch -->
<g id="node2" class="node">
<title>watch</title>
<path fill="#dee5f2" stroke="#3465a4" d="M240,-149.5C240,-149.5 12,-149.5 12,-149.5 6,-149.5 0,-143.5 0,-137.5 0,-137.5 0,-119 0,-119 0,-113 6,-107 12,-107 12,-107 240,-107 240,-107 246,-107 252,-113 252,-119 252,-119 252,-137.5 252,-137.5 252,-143.5 246,-149.5 240,-149.5"/>
<text xml:space="preserve" text-anchor="middle" x="126" y="-135.05" font-family="sans-serif" font-size="11.00">⏱️ cron: 分钟级看门狗</text>
<text xml:space="preserve" text-anchor="middle" x="126" y="-117.8" font-family="sans-serif" font-size="11.00">核心服务状态 (Gateway, MCP)</text>
</g>
<!-- daily&#45;&gt;watch -->
<g id="edge1" class="edge">
<title>daily&#45;&gt;watch</title>
<path fill="none" stroke="black" d="M126,-160.3C126,-160.3 126,-159.24 126,-159.24"/>
<polygon fill="black" stroke="black" points="129.5,-161.22 126,-151.22 122.5,-161.22 129.5,-161.22"/>
</g>
<!-- event -->
<g id="node3" class="node">
<title>event</title>
<path fill="#dee5f2" stroke="#3465a4" d="M240,-96C240,-96 12,-96 12,-96 6,-96 0,-90 0,-84 0,-84 0,-65.5 0,-65.5 0,-59.5 6,-53.5 12,-53.5 12,-53.5 240,-53.5 240,-53.5 246,-53.5 252,-59.5 252,-65.5 252,-65.5 252,-84 252,-84 252,-90 246,-96 240,-96"/>
<text xml:space="preserve" text-anchor="middle" x="126" y="-81.55" font-family="sans-serif" font-size="11.00">🔧 事件驱动修复</text>
<text xml:space="preserve" text-anchor="middle" x="126" y="-64.3" font-family="sans-serif" font-size="11.00">E2EE 修复, MCP 清理</text>
</g>
<!-- watch&#45;&gt;event -->
<g id="edge2" class="edge">
<title>watch&#45;&gt;event</title>
<path fill="none" stroke="black" d="M126,-106.8C126,-106.8 126,-105.74 126,-105.74"/>
<polygon fill="black" stroke="black" points="129.5,-107.72 126,-97.72 122.5,-107.72 129.5,-107.72"/>
</g>
<!-- monthly -->
<g id="node4" class="node">
<title>monthly</title>
<path fill="#dee5f2" stroke="#3465a4" d="M240,-42.5C240,-42.5 12,-42.5 12,-42.5 6,-42.5 0,-36.5 0,-30.5 0,-30.5 0,-12 0,-12 0,-6 6,0 12,0 12,0 240,0 240,0 246,0 252,-6 252,-12 252,-12 252,-30.5 252,-30.5 252,-36.5 246,-42.5 240,-42.5"/>
<text xml:space="preserve" text-anchor="middle" x="126" y="-28.05" font-family="sans-serif" font-size="11.00">📅 月维护窗口</text>
<text xml:space="preserve" text-anchor="middle" x="126" y="-10.8" font-family="sans-serif" font-size="11.00">日志清理, 数据库 VACUUM</text>
</g>
<!-- event&#45;&gt;monthly -->
<g id="edge3" class="edge">
<title>event&#45;&gt;monthly</title>
<path fill="none" stroke="black" d="M126,-53.3C126,-53.3 126,-52.24 126,-52.24"/>
<polygon fill="black" stroke="black" points="129.5,-54.22 126,-44.22 122.5,-54.22 129.5,-54.22"/>
</g>
</g>
</svg>
